<svg width="24" height="24" viewBox="0 0 24 24" fill="none" xmlns="http://www.w3.org/2000/svg">
<g opacity="0.7">
<path d="M2.99183 22.3581H6.2844C6.72019 22.3581 7.11378 22.0655 7.23719 21.6458C7.26328 21.558 7.27621 21.4604 7.27621 21.3693L7.27644 12.1308C7.27644 11.8967 7.19522 11.6724 7.04867 11.5C6.85357 11.2691 6.57703 11.1391 6.28439 11.1391L2.99182 11.1389C2.44555 11.1389 2 11.5844 2 12.1306L2 21.3696C1.99977 21.9161 2.44533 22.3581 2.99183 22.3581ZM5.2014 19.4345C5.7023 19.4345 6.10541 19.8378 6.10541 20.3385C6.10541 20.8393 5.70205 21.2424 5.2014 21.2424C4.7039 21.2424 4.29739 20.8391 4.29739 20.3385C4.29739 19.8376 4.70392 19.4345 5.2014 19.4345Z" fill="white"/>
<path d="M7.92893 21.3693C7.92893 21.4571 7.91918 21.5481 7.90625 21.6361C8.29327 22.0165 8.81368 22.2346 9.35994 22.2346H19.0092C19.4321 22.2346 19.8353 22.0655 20.1476 21.7629C20.4469 21.4572 20.6159 21.054 20.6159 20.628C20.6159 20.2637 20.4956 19.9223 20.2711 19.6363C20.2613 19.6265 20.2581 19.6136 20.2515 19.6004C20.2386 19.5809 20.2289 19.5614 20.2223 19.5419C20.2125 19.5192 20.2094 19.4963 20.2059 19.4768C20.2059 19.4605 20.1994 19.4475 20.1994 19.4346C20.1994 19.428 20.2025 19.4217 20.2025 19.4151C20.2025 19.3924 20.2091 19.3729 20.2155 19.35C20.2221 19.3305 20.2252 19.311 20.235 19.2946C20.2416 19.2751 20.2545 19.2622 20.2674 19.2459C20.2804 19.2264 20.2935 19.21 20.3096 19.1939C20.3162 19.1908 20.3162 19.1842 20.3226 19.181C20.3323 19.1712 20.3452 19.1681 20.3584 19.1615C20.3779 19.1486 20.3974 19.1388 20.4169 19.1322C20.4396 19.1225 20.4625 19.1193 20.4852 19.1159C20.4981 19.1159 20.5113 19.1093 20.5242 19.1093H20.5698C20.9959 19.1093 21.3992 18.9403 21.7082 18.6377C22.0106 18.3319 22.1765 17.9288 22.1765 17.5028C22.1765 17.1224 22.0465 16.7678 21.8024 16.4752L21.8028 16.4718C21.7801 16.4457 21.7606 16.4133 21.7475 16.3808V16.3711C21.7377 16.3484 21.7377 16.3255 21.7346 16.2996C21.7346 16.2833 21.728 16.2638 21.7314 16.2443C21.7314 16.2248 21.738 16.2084 21.7443 16.1889C21.7509 16.1662 21.7509 16.1433 21.7606 16.1238C21.7704 16.1109 21.7833 16.0977 21.7931 16.0816C21.806 16.0621 21.8192 16.0426 21.8387 16.0231C21.8419 16.0231 21.8419 16.0199 21.8453 16.0165C21.8616 16.0036 21.8777 16.0002 21.894 15.9904C21.9104 15.9807 21.9233 15.9678 21.9396 15.9612C22.1608 15.88 22.3625 15.7529 22.5315 15.5871C22.8307 15.2813 22.9997 14.8782 22.9997 14.4522C22.9997 13.8604 22.6549 13.301 22.1184 13.0279C22.1118 13.0247 22.1054 13.0181 22.102 13.0149C22.0891 13.0083 22.0759 13.002 22.0662 12.9922C22.0532 12.9825 22.0401 12.9727 22.0272 12.9598C22.0174 12.9532 22.0108 12.9435 22.0045 12.9337C21.9915 12.9208 21.9784 12.9013 21.9686 12.8849C21.9686 12.8818 21.9655 12.8784 21.9621 12.8752C21.9589 12.8686 21.9621 12.8654 21.9589 12.8623C21.9425 12.8298 21.9328 12.794 21.9296 12.755V12.7484V12.732C21.9296 12.706 21.9362 12.6801 21.9425 12.654C21.9457 12.6443 21.9457 12.6313 21.9491 12.6216C21.9621 12.5891 21.9784 12.563 21.9979 12.537C22.0045 12.5304 22.0077 12.5206 22.0142 12.5143C22.0369 12.4882 22.0662 12.4687 22.0988 12.4492C22.1054 12.446 22.1086 12.4426 22.1152 12.4394C22.2647 12.368 22.4047 12.267 22.5283 12.1402C22.8307 11.8344 22.9999 11.4313 22.9999 11.0053C22.9999 10.1209 22.2778 9.40199 21.3933 9.40199L15.4284 9.40176C15.2496 9.40176 15.103 9.25545 15.103 9.07646V4.19519C15.103 3.60994 14.8753 3.06028 14.459 2.64722C14.0427 2.23095 13.493 2 12.9077 2C12.3775 2 11.9452 2.43259 11.9452 2.96249V5.9024C11.9452 6.09749 11.8801 6.2894 11.763 6.4423L8.40006 11.0212C8.07474 11.4765 8 12 8 12C7.92843 13.0667 7.92843 12.7545 7.92843 13.0667L7.92893 21.3693Z" fill="white"/>
</g>
</svg>
