<svg width="25" height="24" viewBox="0 0 25 24" fill="none" xmlns="http://www.w3.org/2000/svg">
<g opacity="0.7">
<path d="M3 7.59281H11.4455V10.2935H3V7.59281ZM13.8146 10.2935H22V7.59281H13.8142L13.8146 10.2935ZM13.8142 20.5H20.7728V11.3209H13.8142V20.5ZM4.22706 20.5H11.4454V11.3209H4.22706V20.5ZM7.79969 6.54048C7.20319 6.53992 6.63124 6.32684 6.20952 5.94812C5.78768 5.56927 5.55041 5.05575 5.54993 4.52001C5.55009 4.03718 5.74276 3.57042 6.09297 3.20412C6.44335 2.83781 6.92813 2.5964 7.45952 2.52341C7.9909 2.45029 8.53382 2.55063 8.99003 2.80613L12.8239 4.9547L16.6579 2.80613C17.1141 2.55063 17.6571 2.45016 18.1887 2.52328C18.7201 2.59626 19.2049 2.83781 19.5552 3.20412C19.9054 3.57043 20.0981 4.03733 20.0983 4.52016C20.0976 5.05587 19.8604 5.56953 19.4387 5.94826C19.0168 6.32711 18.445 6.5402 17.8485 6.54063H7.79957L7.79969 6.54048ZM15.6545 5.08476H17.8496H17.8494C18.0161 5.08462 18.176 5.02504 18.294 4.91926C18.4117 4.81335 18.4781 4.6699 18.4782 4.52016C18.4782 4.38523 18.4245 4.25475 18.3266 4.15247C18.2287 4.05004 18.0932 3.9825 17.9447 3.96213C17.7961 3.94176 17.6445 3.96967 17.5169 4.04111L15.6545 5.08476ZM7.79969 5.08476H9.99492L8.13255 4.04111C8.03451 3.98432 7.92061 3.95376 7.80392 3.9532C7.69577 3.95418 7.5895 3.97929 7.49472 4.02646C7.39574 4.07432 7.31339 4.14577 7.25621 4.2327C7.19918 4.31978 7.16982 4.41914 7.17106 4.52016C7.17137 4.66989 7.23756 4.81334 7.3555 4.91912C7.47327 5.02503 7.63301 5.08462 7.79973 5.08476L7.79969 5.08476Z" fill="white"/>
</g>
</svg>
