<svg width="24" height="24" viewBox="0 0 24 24" fill="none" xmlns="http://www.w3.org/2000/svg">
<g opacity="0.7" clip-path="url(#clip0_1871_8810)">
<path d="M19.3826 15.2223L19.2598 15.1934L14.2285 14.0108C14.2284 14.0108 14.2283 14.0108 14.2282 14.0108C13.9767 13.9533 13.7125 14.0253 13.5267 14.203L19.3826 15.2223ZM19.3826 15.2223L19.3826 15.0961L19.3822 10.936L19.3822 10.8082L19.2581 10.8389L14.0074 12.1406C14.0072 12.1406 14.0071 12.1406 14.007 12.1407C13.679 12.2188 13.3379 12.0771 13.1683 11.7874C12.9984 11.4971 13.0409 11.1296 13.2729 10.8861L13.2729 10.886C15.1918 8.86682 15.8765 7.15666 16.0708 5.92866C16.2651 4.70124 15.9681 3.96432 15.9374 3.89302L15.8455 3.93258L19.3826 15.2223ZM10.8206 11.7573C10.9992 11.395 10.8987 10.9574 10.581 10.7074C10.5381 10.6732 6.30919 7.29899 7.68108 4.08319C7.69315 4.05318 7.70427 4.02412 7.71366 3.99334C7.72056 3.96945 8.49323 1.56119 12.1367 1.72214C12.1685 1.72291 12.2063 1.72214 12.2381 1.72042C12.2509 1.71966 12.3101 1.71622 12.4046 1.71622L10.8206 11.7573ZM10.8206 11.7573C10.6429 12.1195 10.2359 12.3088 9.84191 12.2111M10.8206 11.7573L9.84191 12.2111M9.84191 12.2111L4.81491 10.9607V10.9358H4.71491L4.69077 11.0329L4.71491 11.0389V14.7092L4.69592 14.7129L4.71491 14.8111H4.81491V14.7918L9.39127 13.9067C9.67467 13.8486 9.96729 13.9419 10.1691 14.1491L9.84191 12.2111ZM15.9096 3.82069C15.58 2.8248 14.9072 2.27167 14.2153 1.96962C13.5264 1.66887 12.8179 1.61622 12.4046 1.61622L15.9096 3.82069ZM12.2324 1.62058C12.2032 1.62215 12.1686 1.62285 12.1401 1.62219C10.2941 1.54088 9.1644 2.11081 8.49454 2.71412C7.83725 3.3061 7.63064 3.92291 7.61801 3.96416C7.60998 3.9905 7.60025 4.01613 7.58869 4.04492C6.88194 5.70291 7.62311 7.38983 8.51907 8.64644C9.41823 9.90754 10.4947 10.7665 10.5187 10.7856L10.5192 10.786C10.8 11.007 10.8884 11.3934 10.7309 11.713L10.7308 11.7132C10.574 12.033 10.2145 12.2004 9.86601 12.114C9.866 12.114 9.86599 12.114 9.86597 12.114L4.73904 10.8388L4.6149 10.8079V10.9358V14.8111V14.9323L4.73389 14.9093L9.41026 14.0049L9.41135 14.0047C9.66054 13.9536 9.91881 14.0355 10.0974 14.2189L10.0976 14.219C10.2758 14.4012 10.3501 14.6607 10.2954 14.9095L8.67884 22.2462L8.65214 22.3674L8.77624 22.3677L14.671 22.3832L14.7931 22.3836L14.7693 22.2638L13.3091 14.8943C13.2592 14.6415 13.3409 14.3816 13.5266 14.2031L12.2324 1.62058ZM12.063 2.96132L12.0629 2.9616L12.0705 2.96205C12.4883 2.98662 13.8746 3.19148 14.5824 4.84712C14.6103 4.93026 14.7725 5.48132 14.5888 6.27032C14.4031 7.06819 13.8613 8.11993 12.4475 9.18306C12.3137 9.28301 12.1529 9.33521 11.9905 9.33521C11.9093 9.33521 11.8273 9.32235 11.7486 9.29589C10.6906 8.94009 8.74949 7.60257 8.93277 5.09276L8.93278 5.09259C8.93649 5.04064 8.94558 4.99017 8.95999 4.94013L8.96004 4.93995C9.06765 4.56349 9.34906 3.9995 9.85082 3.565C10.3493 3.13336 11.068 2.82661 12.063 2.96132Z" fill="white" stroke="white" stroke-width="0.2"/>
</g>
<defs>
<clipPath id="clip0_1871_8810">
<rect width="24" height="24" fill="white"/>
</clipPath>
</defs>
</svg>
