<svg width="24" height="24" viewBox="0 0 24 24" fill="none" xmlns="http://www.w3.org/2000/svg">
<g opacity="0.7" clip-path="url(#clip0_1871_8815)">
<path fill-rule="evenodd" clip-rule="evenodd" d="M1.82254 17.1262C1.59482 18.1885 9.03126 25.2453 9.63816 23.8037C10.1694 22.4379 10.0176 19.4026 11.5352 17.8851C12.977 16.3676 14.0393 17.2781 14.7981 18.4163C15.4051 19.3269 15.6329 20.2374 14.1911 21.0721C16.5434 21.6792 18.8197 20.9962 19.4271 19.0234C19.5788 18.5681 18.5165 19.0993 17.7577 18.5681L18.2889 17.2023L16.8472 17.6575C16.6954 17.4298 16.5436 17.2023 16.3159 16.8988L16.9989 15.3812L15.6331 15.7607C14.9501 14.6984 14.4948 13.5601 14.7983 13.2567C15.2536 12.7254 15.7089 12.7254 16.4677 13.1807L16.2399 14.5465L17.3782 13.8635C17.606 14.0153 17.8335 14.167 18.0613 14.3188L17.9095 15.7605L19.1236 15.0018C19.3513 15.1535 19.6548 15.3813 19.8823 15.533L19.6546 17.2023L20.8687 16.5193C21.3999 17.0505 21.7792 16.6711 21.3999 18.1128C21.0204 19.5546 24.9663 16.5193 23.4487 15.2295C22.3864 14.3189 23.4487 12.4219 22.4622 10.9801C22.4622 10.9801 22.0827 13.6359 21.2481 12.8772C19.1235 11.0561 20.0341 10.0696 19.4271 8.93135C18.744 7.64134 18.0612 6.57905 16.9989 5.89623C15.7849 4.45447 13.4325 3.46817 12.0666 3.24044C10.3213 2.86096 9.79026 1.64694 9.25899 0.58465C8.72777 -0.401836 7.89314 -0.0223663 8.12069 0.812372C8.50018 1.57113 9.18301 4.07518 11.3836 4.60643C11.9148 4.75819 12.5219 4.90995 13.0529 5.13765C12.0664 5.21361 11.08 5.2894 10.0935 5.44116C8.65174 4.15114 6.07183 3.54413 4.63013 3.54413C2.80904 3.46816 2.12603 2.40585 1.36725 1.49535C0.68424 0.584807 -0.074535 1.11588 0.228957 1.87483C0.760181 2.55783 1.8983 4.90996 4.17485 5.0617C5.31315 5.0617 6.60296 5.36521 7.58952 5.89644C7.36179 5.97241 6.67895 6.88293 6.37546 7.3382C7.28602 7.3382 8.57607 7.3382 8.12079 8.09696C7.7413 8.85572 6.2997 9.00751 5.0856 9.08344C4.85787 9.46292 4.63031 9.91819 4.40258 10.3735C5.38909 10.3735 6.8307 10.2975 6.29965 11.1322C5.76843 11.967 4.70612 12.1187 3.49201 12.1945C3.34025 12.6498 3.11253 13.1051 2.96079 13.4845C3.9473 13.5605 5.23716 13.7122 4.70612 14.5468C4.32663 15.1538 3.18852 15.4574 2.12621 15.6091C1.97445 16.1403 1.82269 16.7474 1.82269 17.1267L1.82254 17.1262ZM15.9363 9.46236C16.6193 9.61412 16.9228 10.6764 16.9228 11.1317C16.9228 11.6629 16.4675 11.5111 15.7845 11.2076C15.1775 10.9799 14.6462 10.6006 14.6462 10.1453C14.6462 9.61413 15.1775 9.3106 15.9363 9.46234L15.9363 9.46236ZM10.9282 9.46236C11.6112 9.46236 11.9905 9.84184 11.9905 10.3729C11.9905 10.9041 11.5352 11.0559 10.9282 11.2076C10.4729 11.2076 8.87938 10.8282 8.12056 10.4489C7.58934 10.2212 7.36179 9.99362 8.12056 9.99362C9.86589 9.91765 10.3212 9.4624 10.9282 9.4624V9.46236ZM9.33467 15.153C9.9417 14.9253 10.5487 15.0771 10.7005 15.5325C10.9282 16.0637 10.6245 16.4431 10.0175 16.7466C9.71398 16.9743 7.96868 17.2778 7.20986 17.2018C6.60283 17.2018 6.3751 17.1259 6.98214 16.8224C8.49973 16.0636 8.72746 15.4565 9.33449 15.153H9.33467ZM9.71415 12.042C10.3212 11.966 10.8525 12.2697 10.9282 12.8007C11.0042 13.332 10.5487 13.5595 9.9417 13.7872C9.56222 13.939 7.81708 13.7113 7.05831 13.4837C6.52708 13.332 6.29953 13.1802 6.98234 13.0284C8.65168 12.7249 9.03116 12.1937 9.71399 12.042L9.71415 12.042Z" fill="white"/>
</g>
<defs>
<clipPath id="clip0_1871_8815">
<rect width="24" height="23.9999" fill="white"/>
</clipPath>
</defs>
</svg>
