<svg width="24" height="24" viewBox="0 0 24 24" fill="none" xmlns="http://www.w3.org/2000/svg">
<g opacity="0.7">
<path fill-rule="evenodd" clip-rule="evenodd" d="M20.9302 2.21238L19.8956 2.42344L15.0892 7.22151C11.449 10.8553 10.2352 12.0443 10.0873 12.1215C9.7494 12.2976 9.47075 12.358 9.07559 12.3406C8.77537 12.3274 8.67742 12.3051 8.44854 12.198C8.09269 12.0314 7.86439 11.8397 7.67768 11.5508C7.33053 11.0137 7.27591 10.3683 7.52975 9.80261C7.65681 9.51938 7.7137 9.45984 11.0806 6.08513L14.5023 2.65548L14.2874 2.67807C14.0678 2.70116 9.04128 3.08761 8.96084 3.08761C8.93646 3.08761 9.10926 3.28101 9.3449 3.51735L9.77335 3.94713L7.32893 6.39883C5.88695 7.84519 4.8336 8.93234 4.76031 9.05002C4.49509 9.4757 4.32436 10.0653 4.32436 10.5552C4.32436 11.1112 4.55741 11.7722 4.92186 12.2497C5.16484 12.5681 11.6416 19.0249 11.875 19.1815C12.6154 19.678 13.5008 19.8151 14.31 19.5585C14.9365 19.3598 14.9225 19.3719 17.5988 16.7059L20.0702 14.244L20.4998 14.6723C20.7361 14.9078 20.9294 15.0806 20.9294 15.0562C20.9294 14.9758 21.3158 9.9492 21.3389 9.72966L21.3615 9.51477L17.9319 12.9382C14.9478 15.917 14.4738 16.3749 14.283 16.463C13.675 16.7438 13.0229 16.6992 12.465 16.3386C12.1773 16.1526 11.9855 15.924 11.8191 15.5685C11.5991 15.0988 11.6198 14.4782 11.8723 13.97C11.9238 13.8663 13.5954 12.1663 16.7717 8.98732L21.5929 4.16206L21.8081 3.0896C21.9265 2.49979 22.0234 2.01187 22.0234 2.00538C22.0234 1.98874 22.0671 1.98049 20.9302 2.21238ZM4.6856 15.0532L4.05117 15.6885L6.19041 17.8275L8.32969 19.9666L8.96416 19.3312L9.59859 18.6959L7.45935 16.5569L5.32007 14.4179L4.6856 15.0532ZM3.21076 19.0677L2 20.2789L2.85956 21.1385L3.71911 21.998L4.94937 20.7673L6.17963 19.5366L5.34023 18.6965C4.87857 18.2345 4.48302 17.8564 4.46122 17.8564C4.43942 17.8564 3.87672 18.4015 3.21076 19.0677Z" fill="white"/>
</g>
</svg>
