<svg width="24" height="24" viewBox="0 0 24 24" fill="none" xmlns="http://www.w3.org/2000/svg">
<g opacity="0.7">
<path d="M15.2244 4.84785C15.3737 4.76486 15.5479 4.68188 15.747 4.62649C16.3689 4.37754 16.5182 3.65807 16.0704 3.1326C15.8962 2.91125 15.7222 2.71768 15.5231 2.52394C15.2743 2.27499 14.8763 2.49634 14.9012 2.88366C14.9012 2.96665 14.9012 3.04963 14.926 3.13262C14.9508 3.43696 14.9758 3.74128 14.9508 4.01804C14.926 4.18401 14.8016 4.32238 14.6523 4.43296C15.0752 3.68592 14.5777 3.07725 14.4533 2.41336C14.3786 1.99844 13.9059 1.86008 13.6571 2.16441C13.3586 2.52413 13.284 3.02202 13.4332 3.46473C13.4332 3.49232 13.458 3.49232 13.458 3.52012C13.5326 3.74147 13.6323 3.96282 13.7069 4.18416C13.6821 4.21176 13.6323 4.21176 13.6074 4.23955C13.4582 4.04579 13.2343 3.87982 13.1597 3.65845C12.9109 2.93917 12.3139 3.02217 11.8164 2.93917C11.4681 2.88379 11.1198 2.85619 10.7715 2.85619C10.9207 3.02216 11.0452 3.16053 11.1696 3.35409C11.269 3.49246 11.3686 3.65843 11.4681 3.79679C11.5675 3.96276 11.6423 4.10114 11.7169 4.29469L10.8711 3.74121C10.5974 3.57525 10.3238 3.40928 10.0501 3.24332C9.8759 3.13274 9.67703 3.04956 9.50281 2.93898C9.0799 2.99436 8.65699 3.10495 8.23406 3.24332C8.58235 3.43708 8.90582 3.68603 9.20432 3.9626C9.45317 4.21155 9.70183 4.46049 9.92569 4.76482C10.0251 4.90319 10.1247 5.06916 10.2242 5.20753C10.3236 5.3735 10.3984 5.51187 10.473 5.70543L9.62722 5.15195C9.35355 4.98598 9.0799 4.82001 8.80624 4.65405C8.25891 4.34971 7.71155 4.04539 7.13939 3.82401C7.06477 3.79641 6.99015 3.76862 6.91553 3.74103C6.61705 3.8794 6.34338 4.01777 6.06972 4.18373C6.11952 4.21133 6.14434 4.21133 6.19414 4.23912C6.84093 4.48807 7.43805 4.8754 7.96058 5.37349C8.20944 5.62245 8.45811 5.87139 8.68196 6.17572C8.7814 6.31409 8.88101 6.48006 8.98045 6.61843C9.07989 6.7844 9.15468 6.92277 9.2293 7.11633L8.38349 6.56285C8.10982 6.39688 7.83617 6.23091 7.56251 6.06495C7.01519 5.76061 6.46782 5.45629 5.89566 5.23491C5.622 5.12433 5.32351 5.01355 5.04985 4.95817C4.8508 5.12414 4.65176 5.31789 4.45273 5.48388C4.62696 5.53927 4.7762 5.59446 4.95025 5.64985C5.59704 5.8988 6.19416 6.28613 6.71669 6.78422C6.96554 7.03317 7.21421 7.28212 7.43807 7.58645C7.53751 7.72482 7.63712 7.89079 7.73656 8.02916C7.83599 8.19513 7.91079 8.3335 7.98541 8.52705L7.1396 7.97358C6.86593 7.80761 6.59227 7.64164 6.31861 7.47568C5.77129 7.17134 5.22393 6.86702 4.65177 6.64564C4.35329 6.53505 4.02982 6.42428 3.70635 6.3413C3.68154 6.39668 3.63173 6.42428 3.60692 6.47967C3.48249 6.61804 3.38305 6.78401 3.28345 6.92238C3.43269 6.97776 3.55712 7.00536 3.70635 7.06075C4.35314 7.3097 4.95027 7.69703 5.4728 8.19512C5.72165 8.44407 5.97032 8.69302 6.19418 8.99735C6.29361 9.13572 6.39323 9.30169 6.49266 9.44006C6.5921 9.60602 6.6669 9.7444 6.74152 9.93795L5.8957 9.38448C5.62203 9.21851 5.34838 9.05254 5.07472 8.88658C4.5274 8.58224 3.98003 8.27792 3.40788 8.05654C3.15902 7.97355 2.93515 7.89057 2.6865 7.80758C2.56207 8.00134 2.41283 8.1949 2.28841 8.41624C2.33821 8.44384 2.41283 8.47163 2.46264 8.47163C3.10943 8.72059 3.70655 9.10791 4.22908 9.60601C4.47793 9.85496 4.7266 10.1039 4.95046 10.4082C5.0499 10.5466 5.14951 10.7126 5.24895 10.8509C5.34838 10.9893 5.42318 11.1553 5.4978 11.3488L4.65198 10.7954L3.831 10.2975C3.28368 9.99312 2.73632 9.6888 2.16416 9.46742C2.03973 9.41203 1.89049 9.35684 1.74125 9.32905C1.61683 9.55041 1.4924 9.74397 1.36815 9.96533C1.94031 10.2143 2.48763 10.574 2.96036 11.0167C3.20921 11.2657 3.45788 11.5146 3.68174 11.8189C3.78118 11.9573 3.88079 12.1233 3.98022 12.2616C4.07966 12.4276 4.15446 12.566 4.22908 12.7595L3.38326 12.2061C3.10959 12.0401 2.83594 11.8741 2.56228 11.7082C2.01496 11.4038 1.46759 11.1271 0.895438 10.9059C0.771011 11.1273 0.671574 11.3762 0.547152 11.5976C0.945244 11.8189 1.34334 12.0955 1.69164 12.4276C1.94049 12.6766 2.18916 12.9255 2.41302 13.2299C2.51246 13.3682 2.61207 13.5342 2.7115 13.6726C2.81094 13.8385 2.88574 13.9769 2.96036 14.1705L2.11454 13.617C1.84087 13.451 1.56722 13.2851 1.29356 13.1191C0.870653 12.8701 0.447746 12.6488 0.0248158 12.4828L0 12.5104L8.53323 22V21.9724C8.8069 21.3361 9.18002 20.6996 9.35422 20.008C9.60307 19.0396 9.72732 18.0436 9.85173 17.0476C10.001 16.0516 10.0756 15.0002 10.2746 14.0042C10.4737 12.9806 10.2995 12.0398 9.95117 11.0991C9.80193 10.6842 9.75212 10.2137 9.65269 9.77121C9.70249 9.77121 9.75212 9.74361 9.80193 9.74361C9.95117 10.2415 10.1254 10.712 10.2747 11.2099C10.4489 11.7632 10.7224 12.2335 11.1205 12.5933C11.2449 12.7038 11.4439 12.8422 11.5932 12.8146C12.2898 12.6762 12.5386 13.3679 12.9365 13.7552C13.1854 14.0042 13.3843 14.3639 13.6331 14.6128C13.9566 14.9448 13.9814 15.3321 13.882 15.7472C13.8572 15.8856 13.8074 16.0239 13.7576 16.1621C13.6083 16.7432 13.7078 16.9922 14.1805 17.2965C14.3795 17.4349 14.5786 17.6008 14.7526 17.7668C14.9517 17.9606 15.0761 17.9328 15.1755 17.6838C15.275 17.4901 15.3994 17.2965 15.5238 17.1027C15.5736 17.1027 15.5984 17.1303 15.6482 17.1303C15.474 16.5492 15.3 15.9683 15.1257 15.3873C15.1009 15.2767 15.1009 15.1383 15.1009 15V14.9446C15.2003 15 15.2751 15.0276 15.3746 15.0829C15.3994 15.1105 15.4244 15.1105 15.4492 15.1383C15.8721 15.4151 15.9467 15.9684 16.1209 16.4111C16.2952 16.8538 16.4692 17.2411 17.0166 17.1581C17.0912 17.1305 17.2156 17.2687 17.315 17.3519C17.7131 17.6562 18.0364 17.5179 18.0364 16.9646C18.0364 16.4667 18.2853 16.1623 18.6086 15.8856C19.0067 15.5536 19.1061 15.0555 18.7578 14.696C18.3349 14.2533 18.1857 13.7554 18.0364 13.1743C17.6882 11.9294 17.2402 10.7396 16.8423 9.49468C16.7677 9.21794 16.7179 8.91359 16.7429 8.63707C16.7927 8.19436 16.6185 7.86241 16.4444 7.5027C16.4196 7.44731 16.3698 7.36433 16.345 7.30894L24 2.93917L15.4991 5.20639C15.2992 5.06918 15.2493 4.95862 15.2244 4.84785ZM17.2147 15.1121C17.2147 14.9183 17.2645 14.7802 17.389 14.6694C17.4884 14.5588 17.6378 14.4756 17.8119 14.4756H17.8367C17.9611 14.4756 18.0856 14.5032 18.2098 14.6416C18.2346 14.6416 18.2346 14.6692 18.2346 14.697C18.2844 14.7524 18.3092 14.8076 18.3341 14.863C18.3092 14.863 18.2842 14.8354 18.2594 14.8354C18.2594 14.8907 18.2842 14.9459 18.2842 15.0013C18.2096 14.9183 18.135 14.8354 18.0604 14.78C17.7369 14.78 17.4633 15.0843 17.4633 15.444C17.4633 15.5546 17.4881 15.6378 17.5131 15.7484C17.3638 15.6654 17.2642 15.527 17.2146 15.361V15.278C17.2396 15.2227 17.2147 15.1673 17.2147 15.1121ZM15.3489 8.25082C15.3737 8.25082 15.3737 8.25082 15.3489 8.25082H15.3737H15.3985H15.4233H15.4481C15.5974 8.25082 15.7466 8.30621 15.871 8.38919C16 9.21433 15 9.21433 14.7266 8.69353C14.7514 8.63814 14.8012 8.55516 14.851 8.52756L14.8758 8.49997C15.0502 8.36159 15.1995 8.27861 15.3489 8.25082Z" fill="white"/>
</g>
</svg>
