<svg width="24" height="24" viewBox="0 0 24 24" fill="none" xmlns="http://www.w3.org/2000/svg">
<g opacity="0.7" clip-path="url(#clip0_1871_8860)">
<path d="M12.0016 20.102C11.9342 20.2369 11.8669 20.3379 11.7995 20.4389C11.5974 20.7084 11.3953 20.9441 11.1257 21.18L12.0016 20.102ZM12.0016 20.102C13.7536 17.1716 13.7872 14.3084 12.069 12.1527L12.0016 20.102ZM10.8536 16.8407L10.8525 16.8404C10.6825 17.7916 10.1389 18.6068 9.35803 19.1499M10.8536 16.8407L9.3404 19.1255M10.8536 16.8407L10.8532 16.8363M10.8536 16.8407L10.8532 16.8363M9.35803 19.1499C9.35788 19.15 9.35772 19.1501 9.35757 19.1502L9.3404 19.1255M9.35803 19.1499C9.35817 19.1498 9.35831 19.1497 9.35845 19.1496L9.3404 19.1255M9.35803 19.1499C9.21626 19.2561 9.04056 19.2902 8.86873 19.2902C8.58938 19.2902 8.31075 19.1508 8.13663 18.9071M9.3404 19.1255C9.20574 19.2265 9.03723 19.2601 8.86873 19.2601C8.59918 19.2601 8.32962 19.1255 8.1611 18.8896M8.13663 18.9071C8.13668 18.9072 8.13673 18.9072 8.13678 18.9073L8.1611 18.8896M8.13663 18.9071C7.85664 18.522 7.96258 17.964 8.38037 17.6855C8.77705 17.4211 9.04266 16.9905 9.1424 16.4921C9.24177 15.9953 9.14273 15.5321 8.84419 15.1007C8.56439 14.7157 8.67014 14.158 9.08748 13.8795C9.47267 13.5999 10.0306 13.7058 10.309 14.1234L10.3095 14.1242L10.3095 14.1242C10.8177 14.9376 11.0218 15.8867 10.8532 16.8363M8.13663 18.9071L8.1611 18.8896M8.1611 18.8896L10.8532 16.8363M16.9275 10.532L16.9351 10.5303C18.6255 10.2481 20.1383 10.6007 21.3334 11.478C22.5309 12.3571 23.4119 13.765 23.8316 15.5951C24.2005 17.3386 23.8649 19.1155 22.8928 20.5567C21.9206 21.9644 20.4116 22.9373 18.6665 23.34C18.1286 23.4407 17.5917 23.5078 17.0891 23.5078C15.118 23.5078 13.2808 22.6762 12.0737 21.2128C12.271 20.9498 12.4684 20.6856 12.6337 20.4211L12.6339 20.4209C14.4851 17.3923 14.5277 14.258 12.8527 11.9243C13.2805 11.6308 13.7094 11.4012 14.2029 11.2038L14.2382 11.1897L14.2163 11.1586C12.5362 8.77353 12.0653 6.11876 11.9644 4.1345L11.9592 4.03045L11.9082 4.12131C10.3547 6.89021 10.2536 9.65871 10.2872 11.0082L10.288 11.0376H10.3173C10.4512 11.0376 10.5571 11.046 10.6497 11.0742C10.7414 11.1021 10.8214 11.1499 10.9023 11.2308L10.9018 11.2314L10.9078 11.2352C11.3422 11.5025 11.7105 11.8368 12.0466 12.1728C13.7537 14.3158 13.723 17.1642 11.9758 20.0866L11.9757 20.0865L11.9747 20.0886C11.9083 20.2213 11.8422 20.3208 11.7749 20.4216C11.5738 20.6896 11.3733 20.9234 11.106 21.1573C10.3354 21.8273 9.36277 22.2968 8.32274 22.5317L8.3226 22.5318C7.88772 22.6321 7.45208 22.6656 6.98184 22.6656C5.74148 22.6656 4.50003 22.2969 3.35868 21.6258C1.81541 20.6865 0.742109 19.278 0.27258 17.635C-0.196893 15.9249 0.0380498 14.1484 0.976792 12.6401L0.977042 12.6397C1.88374 11.1289 3.08313 10.1067 4.41065 9.62102C5.73792 9.13543 7.19538 9.18535 8.62055 9.82235L8.66092 9.84039L8.66287 9.79622C8.76376 7.51053 9.43625 3.94751 12.2606 0.788342L12.261 0.787862C12.4566 0.559613 12.8149 0.4308 13.1045 0.527335L13.1052 0.527542C13.5271 0.657267 13.7548 1.04519 13.6911 1.46785C13.6902 1.47061 13.6895 1.47326 13.689 1.47504C13.6879 1.47932 13.6866 1.48479 13.6852 1.49131C13.6824 1.50438 13.6788 1.52251 13.6747 1.5454C13.6664 1.59123 13.6558 1.65671 13.6442 1.74008C13.6209 1.90686 13.5935 2.14555 13.5724 2.44229C13.5302 3.03573 13.5133 3.86166 13.6061 4.80889C13.7918 6.70305 14.4165 9.08463 16.1572 11.0615L16.1809 11.0884L16.2032 11.0604C16.3376 10.8925 16.4451 10.7771 16.5556 10.6952C16.6655 10.6139 16.7793 10.565 16.9275 10.532ZM21.0941 17.1119L21.0973 17.1127L21.0956 17.1047C21.4994 15.171 20.277 13.2724 18.3762 12.831L18.3757 12.8309C17.8873 12.7263 17.4339 13.0402 17.3293 13.4936L17.3292 13.4941C17.2246 13.9823 17.5385 14.4356 17.992 14.5402L17.9929 14.5404C18.4895 14.6396 18.8871 14.9375 19.1527 15.3356C19.4185 15.7677 19.5174 16.2648 19.4182 16.7278C19.3142 17.2133 19.6241 17.6643 20.0734 17.7722C20.0965 17.7914 20.1265 17.7997 20.1552 17.8038C20.1868 17.8083 20.2223 17.8083 20.2551 17.8083H20.2563C20.642 17.8083 20.9901 17.5282 21.0941 17.1119Z" fill="white" stroke="white" stroke-width="0.060156"/>
</g>
<defs>
<clipPath id="clip0_1871_8860">
<rect width="24" height="23.9999" fill="white"/>
</clipPath>
</defs>
</svg>
