<svg width="24" height="24" viewBox="0 0 24 24" fill="none" xmlns="http://www.w3.org/2000/svg">
<g opacity="0.7" clip-path="url(#clip0_1871_8866)">
<path fill-rule="evenodd" clip-rule="evenodd" d="M19.76 3.22151C19.4375 3.22151 19.1763 3.48266 19.1763 3.80517C19.1763 4.12769 19.4375 4.38778 19.76 4.38778C20.0811 4.38778 20.3426 4.12771 20.3426 3.80517C20.3426 3.48264 20.0811 3.22151 19.76 3.22151ZM18.4206 1.57437C19.0808 1.56862 19.7586 1.72231 20.3216 2.04483C20.7887 2.3121 21.1785 2.70157 21.3981 3.21073C21.5219 3.49743 21.5968 3.64393 21.7893 3.76486C22.1882 4.01394 22.6254 4.14875 23.0359 4.32585C23.2391 4.41278 23.4096 4.50043 23.5287 4.60086C23.9304 4.93831 24.0665 5.45051 23.9992 5.90009C23.9319 6.34931 23.6529 6.75697 23.208 6.8511L20.4695 7.43619C19.739 7.59295 19.2092 8.38882 19.2882 8.97137C19.5314 10.7589 19.1074 12.034 18.6862 13.1698C18.2669 14.3048 17.8711 15.2902 18.1518 16.5622L19.0208 20.1684C19.4866 20.3131 19.8737 20.5399 20.1198 20.8851C20.3858 21.2566 20.5143 21.7317 20.5143 22.2826C20.5143 22.3571 20.4533 22.417 20.3781 22.417H18.1473C17.631 22.417 17.2858 22.1003 17.1861 21.7929L15.3893 16.2507L14.6026 17.0404C14.2219 16.0831 13.223 15.398 11.7115 15.398C11.4223 15.398 11.4223 15.7432 11.7115 15.7432C13.3184 15.7432 14.153 16.6033 14.3173 17.6183C14.4802 18.6334 13.9079 19.8727 12.6433 20.5926C12.376 20.7451 12.5479 21.0361 12.8134 20.8808C13.2137 20.6824 13.5511 20.4326 13.8303 20.1537C14.7084 20.4506 15.3879 21.3061 15.3879 22.2828C15.3879 22.3573 15.3263 22.4172 15.2516 22.4172L7.62099 22.4197C7.04758 22.4197 6.5384 22.2363 6.12477 21.9511C5.0483 22.4869 4.05818 22.5333 3.21319 22.2331C2.35627 21.9284 1.65131 21.2868 1.12411 20.4949C0.0713673 18.9151 -0.297562 16.7474 0.305527 15.3784C0.652174 14.5928 1.36435 14.3315 1.94085 14.4553C2.22901 14.5183 2.48583 14.6734 2.64982 14.9063C2.81414 15.1405 2.87696 15.4531 2.78139 15.7918C2.28105 17.5624 2.4351 19.1406 3.18167 20.0201C3.46065 20.3484 3.85051 20.4814 4.11056 20.4384C4.24015 20.4175 4.33447 20.3578 4.3926 20.262C4.45074 20.1666 4.47773 20.0232 4.42842 19.8079C4.05027 18.1833 4.14314 16.1438 5.69587 14.6938L12.5893 8.24896C13.0805 7.79056 13.2315 7.78587 13.772 8.0985C14.3006 8.4032 15.0412 8.66129 15.583 8.47321C15.8756 8.36738 16.1177 8.1165 16.2 7.76105C16.2 7.76105 16.6836 5.67206 16.9239 4.62858C16.9763 4.40721 16.6656 4.29509 16.5985 4.55065L15.777 7.66404C15.65 8.14657 15.1498 8.16726 14.7619 8.05081C14.2886 7.90755 13.4763 7.50728 13.3271 6.99669C13.1883 6.5219 13.5974 5.75449 14.0499 5.15843L15.1251 3.73268C15.5136 3.21758 15.794 2.53205 16.3123 2.14673C16.8226 1.76752 17.7128 1.5809 18.4203 1.57477L18.4206 1.57437Z" fill="white"/>
</g>
<defs>
<clipPath id="clip0_1871_8866">
<rect width="24" height="23.9999" fill="white" transform="matrix(-1 0 0 1 24 0)"/>
</clipPath>
</defs>
</svg>
