<svg width="24" height="24" viewBox="0 0 24 24" fill="none" xmlns="http://www.w3.org/2000/svg">
<g opacity="0.7">
<path d="M11.9988 13.3816C12.4318 12.0207 13.1123 10.5671 14.2567 9.4228C14.7517 8.9279 15.3083 8.52599 15.8652 8.15468C15.03 4.87633 12.5246 2.49479 12.401 2.37107L11.9988 2L11.5658 2.40214C11.4421 2.52575 8.90571 4.90728 8.10156 8.18574C8.68931 8.52597 9.21508 8.92808 9.71003 9.45386C10.8852 10.5982 11.5658 12.0518 11.9988 13.3816V13.3816Z" fill="white"/>
<path d="M3.49525 14.9277C1.76317 15.639 0.556863 16.7216 0.494945 16.7835L0 17.2474L0.494945 17.7112C0.618575 17.804 3.18589 20.1855 6.46463 20.1855C7.26878 20.1855 8.04205 20.0309 8.75358 19.8145C8.8155 19.4434 9.06298 18.763 9.92901 18.0825C8.16583 17.8351 5.66048 17.1546 3.86654 15.3299C3.71205 15.1752 3.58821 15.0516 3.49543 14.9278L3.49525 14.9277Z" fill="white"/>
<path d="M23.5042 16.7835C23.4423 16.7216 22.2671 15.6393 20.5039 14.9277C20.3803 15.0514 20.2564 15.1752 20.1328 15.3299C18.3079 17.1546 15.8026 17.835 14.0703 18.0825C14.9364 18.7938 15.1838 19.4742 15.2457 19.8144C15.9571 20.031 16.7304 20.1855 17.5347 20.1855C20.8133 20.1855 23.3807 17.804 23.5044 17.7112L23.9993 17.2473L23.5042 16.7835Z" fill="white"/>
<path d="M12.625 16.9389C13.9549 16.877 17.2027 16.5059 19.2752 14.4338C21.3475 12.3616 21.7186 9.14492 21.7805 7.78418C20.4506 7.8461 17.2028 8.24802 15.1304 10.2893C13.0891 12.3923 12.6869 15.6088 12.625 16.9389Z" fill="white"/>
<path d="M11.3821 16.9389C11.3202 15.6091 10.9491 12.3616 8.87673 10.2893C6.80435 8.21712 3.5566 7.84609 2.22656 7.78418C2.28849 9.11399 2.65959 12.3615 4.73192 14.4338C6.8043 16.506 10.021 16.877 11.3821 16.9389Z" fill="white"/>
<path d="M11.9946 18.2686C11.0977 18.6707 9.95312 19.4439 9.95312 20.0316C9.95312 20.5882 11.0666 21.3614 11.9946 21.7946C12.8915 21.3925 14.0361 20.6193 14.0361 20.0316C14.0361 19.4748 12.9226 18.7016 11.9946 18.2686Z" fill="white"/>
</g>
</svg>
