<svg width="24" height="24" viewBox="0 0 24 24" fill="none" xmlns="http://www.w3.org/2000/svg">
<g opacity="0.7">
<path d="M11.4669 5.15475C11.4669 5.08146 11.4157 4.99014 11.3527 4.95201C11.3527 4.95201 9.47302 3.80963 7.20018 3.1324C4.92735 2.45518 2.80033 2.40237 2.80033 2.40237C2.72704 2.40088 2.66696 2.45947 2.66696 2.53276V16.1316C2.66696 16.2049 2.72704 16.27 2.79977 16.2761C2.79977 16.2761 5.0226 16.4649 8.80018 17.7654C9.80836 18.1126 11.3461 18.8116 11.3461 18.8116C11.4127 18.8419 11.4674 18.8068 11.4674 18.7335L11.4669 5.15475ZM12.5329 18.7336C12.5329 18.8069 12.5876 18.842 12.6542 18.8117C12.6542 18.8117 14.1917 18.1125 15.2001 17.7655C18.9776 16.465 21.2005 16.2762 21.2005 16.2762C21.2733 16.2701 21.3333 16.205 21.3333 16.1317V2.53285C21.3333 2.45956 21.2733 2.40079 21.2 2.40265C21.2 2.40265 19.0728 2.45547 16.8001 3.13268C14.5273 3.80991 12.6476 4.95229 12.6476 4.95229C12.5846 4.9906 12.5334 5.08174 12.5334 5.15484L12.5329 18.7336ZM1.60017 16.1317C1.60017 16.205 1.60017 16.3249 1.60035 16.3984L1.60147 17.1085C1.60166 17.1818 1.66174 17.2471 1.73447 17.2536L2.44184 17.3159C2.51495 17.3222 2.63436 17.333 2.70746 17.3399C2.70746 17.3399 4.87001 17.5408 8.45216 18.7739C9.28715 19.0611 10.7726 19.721 10.7726 19.721C10.8396 19.7506 10.845 19.809 10.7843 19.8501L9.19154 20.9305C9.13202 20.9737 9.08347 21.0092 9.08328 21.0088C9.08328 21.0088 9.0273 20.9867 8.95903 20.9596C8.95903 20.9596 8.26223 20.6824 7.84466 20.5388C4.54093 19.4016 2.53567 19.1997 2.53567 19.1997C2.46294 19.1924 2.34315 19.1812 2.27042 19.1746L0.132251 18.9858C0.0600802 18.9794 0 18.9143 0 18.8407V6.26605C0 6.19276 0.0373883 6.08581 0.0829612 6.02816C0.0829612 6.02816 0.307849 5.74395 0.718907 5.33274C1.13017 4.9215 1.49737 4.61794 1.49737 4.61794C1.55355 4.57126 1.60005 4.59283 1.60005 4.66612L1.60017 16.1317ZM13.6838 21.5279C13.7562 21.5154 13.7655 21.4713 13.7043 21.4306L12.1126 20.4385C12.0505 20.3996 11.9489 20.3996 11.8864 20.4385L10.2949 21.4306C10.2339 21.4713 10.2434 21.5154 10.3154 21.5279C10.3154 21.5279 10.7655 21.6062 11.9991 21.6062C13.2329 21.6062 13.6838 21.5279 13.6838 21.5279H13.6838ZM22.3999 4.66598C22.3999 4.59269 22.4463 4.57112 22.5028 4.61781C22.5028 4.61781 22.87 4.92154 23.2813 5.3326C23.6925 5.74384 23.9172 6.02802 23.9172 6.02802C23.9626 6.08549 24 6.19244 24 6.26591V18.841C24 18.9143 23.9399 18.9796 23.8672 18.9861L21.729 19.1749C21.6563 19.1812 21.5365 19.1926 21.4638 19.2C21.4638 19.2 19.4582 19.4022 16.1548 20.5392C15.7374 20.6829 15.0404 20.9599 15.0404 20.9599C14.9721 20.987 14.9162 21.0092 14.9162 21.0092C14.916 21.0094 14.8671 20.974 14.8079 20.9309L13.2151 19.8504C13.1543 19.8093 13.1599 19.7509 13.2268 19.7214C13.2268 19.7214 14.7125 19.0615 15.5473 18.7743C19.1296 17.5411 21.292 17.3402 21.292 17.3402C21.3651 17.3335 21.4845 17.3229 21.5576 17.3162L22.265 17.2539C22.3377 17.2476 22.3978 17.1821 22.398 17.1089L22.3991 16.3987C22.3998 16.3251 22.3998 16.2051 22.3998 16.1318L22.3999 4.66598Z" fill="white"/>
</g>
</svg>
