<svg width="25" height="24" viewBox="0 0 25 24" fill="none" xmlns="http://www.w3.org/2000/svg">
<g opacity="0.7">
<path d="M21.7903 12.7654L18.2465 14.5587L16.3057 13.4406L19.0903 11.9848L16.3269 10.5291L18.2466 9.41091L21.8117 11.2253L22.3813 10.1071L19.5546 8.67259L21.5376 7.53341L20.9047 6.43631L18.9217 7.57549L19.0905 4.4109L17.8247 4.34762L17.6137 8.335L15.673 9.45316L15.7995 6.30963L13.1416 7.99745V5.7822L16.4746 3.60918L15.7785 2.55431L13.1205 4.28436V2.00586H11.8548V4.28436L9.19686 2.55431L8.50072 3.60918L11.8337 5.7822L11.8334 7.99745L9.1755 6.33084L9.30205 9.47437L7.38238 8.35621L7.17137 4.36883L5.9056 4.43211L6.07437 7.5967L4.09141 6.45752L3.45853 7.55462L5.44149 8.6938L2.61481 10.1283L3.18441 11.2465L6.72828 9.45315L8.64795 10.5713L5.88456 12.0271L8.66916 13.4828L6.72843 14.601L3.16335 12.7866L2.59375 13.9047L5.42043 15.3393L3.43747 16.4785L4.07036 17.5756L6.05332 16.4364L5.88454 19.601L7.15031 19.6643L7.36132 15.6769L9.28099 14.5587L9.15445 17.6811L11.8124 15.9933V18.2295L8.47937 20.4025L9.1755 21.4574L11.8334 19.7274V22.0059H13.0992V19.7274L15.7571 21.4574L16.4532 20.4025L13.1203 18.2295V16.0143L15.7782 17.6809L15.6516 14.5585L17.5713 15.6767L17.7823 19.6641L19.0481 19.6008L18.8793 16.4362L20.8623 17.5754L21.4951 16.4783L19.5122 15.3391L22.3389 13.9046L21.7903 12.7654ZM16.39 12.0059L15.0189 12.7231L13.7954 12.0059L15.04 11.2886L16.39 12.0059ZM14.4493 8.65145L14.386 10.1915L13.1415 10.9088L13.1413 9.47424L14.4493 8.65145ZM10.5889 8.65145L11.8968 9.47424V10.9088L10.6522 10.1915L10.5889 8.65145ZM8.66924 12.0059L10.0193 11.2886L11.2639 12.0059L10.0404 12.7231L8.66924 12.0059ZM10.5889 15.3392L10.6522 13.8202L11.8968 13.103V14.5165L10.5889 15.3392ZM14.4493 15.3392L13.1625 14.5165V13.0819L14.4071 13.7992L14.4493 15.3392Z" fill="white"/>
</g>
</svg>
