<svg width="24" height="24" viewBox="0 0 24 24" fill="none" xmlns="http://www.w3.org/2000/svg">
<g>
<path fill-rule="evenodd" clip-rule="evenodd" d="M7.40463 14.9389C7.53666 15.3315 7.32542 15.7568 6.93281 15.8888C5.6615 16.3163 4.98587 17.3836 4.62447 18.4688C4.48097 18.8997 4.39427 19.3146 4.34217 19.6576C4.6852 19.6055 5.10007 19.5188 5.53101 19.3753C6.61626 19.0139 7.68348 18.3383 8.11099 17.067C8.24302 16.6744 8.66832 16.4632 9.06093 16.5952C9.45354 16.7272 9.66478 17.1525 9.53276 17.5451C8.89152 19.4519 7.30561 20.3654 6.00493 20.7985C5.34786 21.0173 4.73274 21.1253 4.28376 21.1792C4.05818 21.2063 3.87169 21.22 3.73921 21.2269C3.67289 21.2304 3.61989 21.2322 3.58206 21.2332C3.56314 21.2337 3.54799 21.2339 3.53685 21.234L3.52316 21.2342L3.51861 21.2342L3.51692 21.2342L3.51622 21.2342C3.51592 21.2342 3.51563 21.2342 3.51563 20.4842C2.76562 20.4842 2.76563 20.4839 2.76563 20.4836L2.76563 20.4829L2.76563 20.4812L2.76565 20.4767L2.76578 20.463C2.76591 20.4518 2.76616 20.4367 2.76663 20.4178C2.76757 20.3799 2.76938 20.3269 2.77287 20.2606C2.77984 20.1281 2.79356 19.9416 2.82062 19.7161C2.87448 19.2671 2.9825 18.6519 3.20131 17.9949C3.63444 16.6942 4.54787 15.1083 6.45469 14.4671C6.8473 14.335 7.2726 14.5463 7.40463 14.9389ZM3.51563 20.4842H2.76562C2.76562 20.8984 3.10141 21.2342 3.51563 21.2342V20.4842Z" fill="white"/>
<path fill-rule="evenodd" clip-rule="evenodd" d="M17.3064 10.1904C17.7206 10.1904 18.0564 10.5262 18.0564 10.9404V16.9967L18.0563 17.0074C18.0507 17.4013 17.8903 17.7772 17.61 18.0538L14.5833 21.0898C14.3912 21.2817 14.1505 21.4179 13.8871 21.4838C13.6236 21.5496 13.3472 21.5427 13.0873 21.4638C12.8275 21.3849 12.5939 21.2369 12.4116 21.0357C12.2294 20.8346 12.1052 20.5878 12.0522 20.3217C12.0521 20.3215 12.0522 20.3219 12.0522 20.3217L11.2648 16.3941C11.1834 15.988 11.4466 15.5927 11.8527 15.5113C12.2589 15.4299 12.6541 15.6931 12.7355 16.0993L13.5232 20.0285L16.5564 16.986V10.9404C16.5564 10.5262 16.8922 10.1904 17.3064 10.1904Z" fill="white"/>
<path fill-rule="evenodd" clip-rule="evenodd" d="M6.99775 5.94344L7.00843 5.94336H13.0647C13.4789 5.94336 13.8147 6.27915 13.8147 6.69336C13.8147 7.10757 13.4789 7.44336 13.0647 7.44336H7.01903L7.01297 7.44955L7.01294 7.44951L3.97656 10.4765L3.97773 10.4767L7.90585 11.2642C8.31198 11.3457 8.57522 11.7409 8.4938 12.147C8.41238 12.5532 8.01714 12.8164 7.611 12.735L3.68404 11.9477C3.68382 11.9477 3.68359 11.9476 3.68337 11.9476C3.41727 11.8945 3.17054 11.7703 2.96945 11.5881C2.76819 11.4058 2.62021 11.1723 2.54129 10.9124C2.46238 10.6526 2.45548 10.3762 2.52135 10.1127C2.58722 9.84923 2.72337 9.6086 2.91529 9.41646L2.91642 9.41533L2.91642 9.41534L5.95134 6.38978C6.22795 6.10942 6.6038 5.94905 6.99775 5.94344Z" fill="white"/>
<path fill-rule="evenodd" clip-rule="evenodd" d="M13.5853 5.10418C16.2038 2.48569 18.8726 2.48719 20.0698 2.66053C20.3903 2.70439 20.6876 2.85194 20.9163 3.08069C21.1451 3.30944 21.2926 3.60676 21.3365 3.92719C21.5098 5.12443 21.5113 7.79322 18.8928 10.4117L12.5272 16.7773C12.2343 17.0702 11.7594 17.0702 11.4665 16.7773L7.21967 12.5305C7.07902 12.3898 7 12.1991 7 12.0001C7 11.8012 7.07902 11.6105 7.21967 11.4698L13.5853 5.10418ZM15.5 10C16.3284 10 17 9.32843 17 8.5C17 7.67157 16.3284 7 15.5 7C14.6716 7 14 7.67157 14 8.5C14 9.32843 14.6716 10 15.5 10Z" fill="white"/>
</g>
</svg>
