<svg width="24" height="24" viewBox="0 0 24 24" fill="none" xmlns="http://www.w3.org/2000/svg">
<g opacity="0.7">
<path d="M13.9241 1.69838L12.0469 5.45263C12.0041 5.53755 11.9172 5.59104 11.8222 5.59104C11.7273 5.59104 11.6403 5.53755 11.5975 5.45263L9.72039 1.69838C9.68295 1.62037 9.68763 1.52855 9.7331 1.45478C9.77857 1.38101 9.85836 1.33555 9.94506 1.33398H13.6997H13.6994C13.7861 1.33554 13.8659 1.38101 13.9114 1.45478C13.9569 1.52855 13.9616 1.62037 13.9241 1.69838H13.9241Z" fill="white"/>
<path d="M9.64342 12.8538C9.64565 12.737 9.65746 12.6205 9.67864 12.5055L4.15941 10.2197C3.86898 11.0677 3.72009 11.9577 3.71875 12.8538C3.72053 13.7495 3.87165 14.6388 4.16587 15.4848L9.67836 13.2017C9.65741 13.0869 9.6456 12.9706 9.64337 12.8538L9.64342 12.8538Z" fill="white"/>
<path d="M10.5492 11.0936L8.26085 5.56934C6.63351 6.3572 5.31959 7.67055 4.53125 9.29752L10.0569 11.5862L10.0567 11.5859C10.1938 11.3967 10.3598 11.2305 10.5493 11.0936L10.5492 11.0936Z" fill="white"/>
<path d="M13.0032 12.8541C13.0032 13.5064 12.4743 14.0353 11.8219 14.0353C11.1695 14.0353 10.6406 13.5064 10.6406 12.8541C10.6406 12.2017 11.1695 11.6729 11.8219 11.6729C12.4743 11.6729 13.0032 12.2017 13.0032 12.8541Z" fill="white"/>
<path d="M10.0563 14.127L4.54688 16.409C5.34126 18.0261 6.64965 19.3343 8.26689 20.1286L10.5488 14.6195C10.3594 14.4827 10.1931 14.3164 10.0562 14.127L10.0563 14.127Z" fill="white"/>
<path d="M13.5785 11.5859L19.1042 9.2973L19.1039 9.29752C18.3156 7.67055 17.0016 6.3572 15.3743 5.56934L13.0859 11.0936C13.2754 11.2304 13.4414 11.3967 13.5785 11.5859L13.5785 11.5859Z" fill="white"/>
<path d="M19.488 10.2197L13.9688 12.5055C14.0158 12.7352 14.0158 12.9719 13.969 13.2017L19.4815 15.4848C19.7757 14.6388 19.9268 13.7495 19.9286 12.8538C19.9272 11.9577 19.7784 11.0677 19.4879 10.2197H19.488Z" fill="white"/>
<path d="M11.8187 15.0362C11.7019 15.034 11.5856 15.0221 11.4708 15.001L9.1875 20.5132C10.891 21.1091 12.7464 21.1091 14.45 20.5132L12.1667 15.0012C12.0519 15.0222 11.9355 15.034 11.8187 15.0362L11.8187 15.0362Z" fill="white"/>
<path d="M13.4287 4.91829L12.9394 5.89666C12.7995 6.17436 12.5616 6.38987 12.2717 6.50173C11.9817 6.61361 11.6603 6.61361 11.3703 6.50173C11.0803 6.38985 10.8425 6.17433 10.7025 5.89666L10.2133 4.91829C9.86691 4.98872 9.52503 5.08031 9.18974 5.19286L11.4715 10.7094C11.5871 10.69 11.7037 10.6784 11.8209 10.6744C11.9382 10.6784 12.0548 10.69 12.1704 10.7094L14.4521 5.19286C14.1169 5.08031 13.775 4.98872 13.4286 4.91829H13.4287ZM14.5271 2.72168L13.893 3.98984C16.8182 4.67358 19.2176 6.75653 20.3054 9.55644C21.3929 12.3566 21.0289 15.5129 19.3322 17.9914C17.6356 20.4704 14.8252 21.9525 11.8209 21.9525C8.81654 21.9525 6.00645 20.4704 4.30949 17.9914C2.61287 15.5127 2.24889 12.3563 3.33634 9.55644C4.42401 6.75653 6.82344 4.67358 9.74873 3.98984L9.11462 2.72168C6.65659 3.37827 4.52107 4.90625 3.10621 7.02087C1.69153 9.13543 1.09394 11.6925 1.42517 14.2149C1.75639 16.7373 2.99363 19.0534 4.90628 20.7311C6.81893 22.4089 9.2765 23.334 11.8208 23.334C14.3651 23.334 16.8227 22.4089 18.7353 20.7311C20.648 19.0534 21.8852 16.7373 22.2164 14.2149C22.5476 11.6925 21.9501 9.13549 20.5354 7.02087C19.1205 4.90631 16.9849 3.37827 14.527 2.72168H14.5271ZM13.4287 4.91829L12.9394 5.89666C12.7995 6.17436 12.5616 6.38987 12.2717 6.50173C11.9817 6.61361 11.6603 6.61361 11.3703 6.50173C11.0803 6.38985 10.8425 6.17433 10.7025 5.89666L10.2133 4.91829C9.86691 4.98872 9.52503 5.08031 9.18974 5.19286L11.4715 10.7094C11.5871 10.69 11.7037 10.6784 11.8209 10.6744C11.9382 10.6784 12.0548 10.69 12.1704 10.7094L14.4521 5.19286C14.1169 5.08031 13.775 4.98872 13.4286 4.91829H13.4287ZM13.4287 4.91829L12.9394 5.89666C12.7995 6.17436 12.5616 6.38987 12.2717 6.50173C11.9817 6.61361 11.6603 6.61361 11.3703 6.50173C11.0803 6.38985 10.8425 6.17433 10.7025 5.89666L10.2133 4.91829C9.86691 4.98872 9.52503 5.08031 9.18974 5.19286L11.4715 10.7094C11.5871 10.69 11.7037 10.6784 11.8209 10.6744C11.9382 10.6784 12.0548 10.69 12.1704 10.7094L14.4521 5.19286C14.1169 5.08031 13.775 4.98872 13.4286 4.91829H13.4287Z" fill="white"/>
<path d="M13.086 14.6197L15.3679 20.1286C16.9854 19.3343 18.2938 18.026 19.0882 16.4089L13.5787 14.127C13.4419 14.3164 13.2754 14.4829 13.0859 14.6197L13.086 14.6197Z" fill="white"/>
</g>
</svg>
