<svg width="24" height="24" viewBox="0 0 24 24" fill="none" xmlns="http://www.w3.org/2000/svg">
<g opacity="0.7" clip-path="url(#clip0_1946_9882)">
<path fill-rule="evenodd" clip-rule="evenodd" d="M2.49934 12.9995H9.49669C10.3366 12.9992 10.9973 13.6608 10.9973 14.5004L10.9982 21.4992C10.9982 22.3389 10.3375 23.0003 9.49766 23.0001H2.5003C1.66041 23.0001 0.99967 22.3388 0.99967 21.4992V14.4996C0.99967 13.6599 1.65945 12.9995 2.49934 12.9995ZM2.50337 15.4993C2.50337 14.9471 2.9509 14.4994 3.50307 14.4994C4.05524 14.4994 4.50278 14.9471 4.50278 15.4993C4.50278 16.0516 4.05524 16.4993 3.50307 16.4993C2.9509 16.4993 2.50337 16.0516 2.50337 15.4993ZM7.50019 15.4993C7.50019 14.9471 7.94773 14.4994 8.4999 14.4994C9.05207 14.4994 9.49961 14.9471 9.49961 15.4993C9.49961 16.0516 9.05207 16.4993 8.4999 16.4993C7.94773 16.4993 7.50019 16.0516 7.50019 15.4993ZM2.50337 20.499C2.50337 19.9468 2.9509 19.499 3.50307 19.499C4.05524 19.499 4.50278 19.9468 4.50278 20.499C4.50278 21.0513 4.05524 21.499 3.50307 21.499C2.9509 21.499 2.50337 21.0513 2.50337 20.499ZM7.50019 20.499C7.50019 19.9468 7.94773 19.499 8.4999 19.499C9.05207 19.499 9.49961 19.9468 9.49961 20.499C9.49961 21.0513 9.05207 21.499 8.4999 21.499C7.94773 21.499 7.50019 21.0513 7.50019 20.499Z" fill="white"/>
<path fill-rule="evenodd" clip-rule="evenodd" d="M14.498 1.00106H21.4954C22.3348 1.00106 22.9962 1.66181 22.9959 2.50186V9.5006C22.9959 10.3407 22.3348 11.0015 21.4954 11.0015L14.4968 11.0005C13.6574 11.0005 12.9971 10.3406 12.9971 9.50058V2.50184C12.9969 1.66179 13.6587 1.00106 14.498 1.00106ZM14.7899 2.79482C14.9774 2.60733 15.2316 2.50186 15.4969 2.50186C15.762 2.50186 16.0162 2.60733 16.2037 2.79482C16.3913 2.98231 16.4966 3.2366 16.4966 3.50194C16.4966 3.76708 16.3913 4.02139 16.2037 4.20888C16.0162 4.39654 15.762 4.50184 15.4969 4.50184C15.2316 4.50184 14.9774 4.39654 14.7899 4.20888C14.6025 4.02139 14.497 3.7671 14.497 3.50194C14.497 3.23662 14.6025 2.98231 14.7899 2.79482ZM19.7886 2.79482C19.9761 2.60733 20.2303 2.50186 20.4954 2.50186C20.7607 2.50186 21.015 2.60733 21.2024 2.79482C21.3899 2.98231 21.4953 3.2366 21.4953 3.50194C21.4953 3.76708 21.3899 4.02139 21.2024 4.20888C21.015 4.39654 20.7607 4.50184 20.4954 4.50184C20.2303 4.50184 19.9761 4.39654 19.7886 4.20888C19.601 4.02139 19.4957 3.7671 19.4957 3.50194C19.4957 3.23662 19.601 2.98231 19.7886 2.79482ZM17.2891 5.29467C17.4766 5.10718 17.731 5.00188 17.9961 5.00188C18.2612 5.00188 18.5156 5.10718 18.7031 5.29467C18.8905 5.48217 18.9958 5.7366 18.9958 6.00179C18.9958 6.26698 18.8905 6.52141 18.7031 6.70891C18.5156 6.8964 18.2612 7.00169 17.9961 7.00169C17.7309 7.00169 17.4766 6.8964 17.2891 6.70891C17.1016 6.52141 16.9964 6.26698 16.9964 6.00179C16.9964 5.7366 17.1016 5.48217 17.2891 5.29467ZM14.7897 7.79469C14.9772 7.60703 15.2314 7.50173 15.4967 7.50173C15.7618 7.50173 16.0161 7.60703 16.2035 7.79469C16.3911 7.98218 16.4964 8.23647 16.4964 8.50163C16.4964 8.76695 16.3911 9.02126 16.2035 9.20875C16.0161 9.39624 15.7618 9.50171 15.4967 9.50171C15.2315 9.50171 14.9772 9.39624 14.7897 9.20875C14.6023 9.02126 14.4968 8.76697 14.4968 8.50163C14.4968 8.23649 14.6023 7.98218 14.7897 7.79469ZM19.7885 7.79469C19.9759 7.60703 20.2301 7.50173 20.4953 7.50173C20.7605 7.50173 21.0148 7.60703 21.2022 7.79469C21.3897 7.98218 21.4951 8.23647 21.4951 8.50163C21.4951 8.76695 21.3897 9.02126 21.2022 9.20875C21.0148 9.39624 20.7605 9.50171 20.4953 9.50171C20.2302 9.50171 19.9759 9.39624 19.7885 9.20875C19.6008 9.02126 19.4956 8.76697 19.4956 8.50163C19.4956 8.23649 19.6008 7.98218 19.7885 7.79469Z" fill="white"/>
<path fill-rule="evenodd" clip-rule="evenodd" d="M11.9977 2.50186C11.9977 1.12479 13.1219 0 14.498 0H21.4954C22.8713 0 23.9957 1.12479 23.9957 2.50186V9.5006C23.9957 10.8776 22.8713 12.0014 21.4954 12.0014H14.498C13.1219 12.0014 11.9977 10.8777 11.9977 9.5006V2.50186ZM21.4954 1.00106H14.498C13.6587 1.00106 12.9969 1.66179 12.9971 2.50184V9.50058C12.9971 10.3406 13.6574 11.0005 14.4968 11.0005L21.4954 11.0015C22.3348 11.0015 22.9959 10.3407 22.9959 9.5006V2.50186C22.9962 1.66181 22.3348 1.00106 21.4954 1.00106ZM0 14.5004C0 13.124 1.12354 11.9994 2.50034 11.9994H9.4977C10.8743 11.9994 11.9991 13.124 11.9991 14.5004V21.4992C11.9991 22.8756 10.8743 24 9.4977 24H2.50034C1.12358 24 0 22.8756 0 21.4992V14.5004ZM9.49669 12.9995H2.49934C1.65945 12.9995 0.99967 13.6599 0.99967 14.4996V21.4992C0.99967 22.3388 1.66041 23.0001 2.5003 23.0001H9.49766C10.3375 23.0003 10.9982 22.3389 10.9982 21.4992L10.9973 14.5004C10.9973 13.6608 10.3366 12.9992 9.49669 12.9995Z" fill="white"/>
</g>
<defs>
<clipPath id="clip0_1946_9882">
<rect width="24" height="24" fill="white"/>
</clipPath>
</defs>
</svg>
