<svg width="25" height="24" viewBox="0 0 25 24" fill="none" xmlns="http://www.w3.org/2000/svg">
<g opacity="0.7">
<path fill-rule="evenodd" clip-rule="evenodd" d="M9.05728 24.0002C12.9551 24.0002 16.1146 20.8756 16.1146 17.0211C16.1146 13.1666 12.9548 10.042 9.05728 10.042C5.15975 10.042 2 13.1666 2 17.0211C2 20.8756 5.15975 24.0002 9.05728 24.0002ZM5.39006 17.887C6.66814 18.7492 8.46107 18.3259 9.39451 16.9419C10.328 15.5578 10.0488 13.737 8.77072 12.8748C7.49263 12.0127 5.6997 12.4359 4.76626 13.8199C3.83264 15.2041 4.11187 17.0248 5.38996 17.887H5.39006Z" fill="white"/>
<path fill-rule="evenodd" clip-rule="evenodd" d="M9.75 6.9791C9.75 3.12464 12.9095 0 16.8073 0C20.7048 0 23.8646 3.12464 23.8646 6.9791C23.8646 10.8336 20.7048 13.9582 16.8073 13.9582C16.5101 13.9582 16.2173 13.94 15.9298 13.9048C14.9532 11.6912 12.8494 10.0756 10.3357 9.76724C9.95896 8.91328 9.75 7.97032 9.75 6.9791ZM16.47 7.05832C17.4035 5.67429 19.1964 5.25103 20.4745 6.1132H20.4746C21.7527 6.97537 22.0319 8.79614 21.0983 10.1803C20.1649 11.5643 18.3719 11.9875 17.0938 11.1254C15.8158 10.2632 15.5365 8.44245 16.47 7.05832Z" fill="white"/>
<path d="M18.9593 6.60458L18.8956 6.52751L18.8185 6.59123L17.1003 8.0118L17.0233 8.07552L17.087 8.15259L17.3573 8.47954L17.421 8.55661L17.4981 8.49289L18.6618 7.53076L19.4119 10.3504L19.452 10.5012L19.5722 10.4018L20.0048 10.0442L20.0551 10.0026L20.0373 9.93979L19.1643 6.86577L19.1586 6.84556L19.1452 6.82937L18.9593 6.60458Z" fill="white" stroke="white" stroke-width="0.2"/>
<path d="M8.31475 16.4045V16.5045V16.9355V17.0355H8.21475H6.02379H5.92379V16.9355V16.5651V16.5262L5.95008 16.4975L7.01357 15.3375C7.12865 15.2077 7.21785 15.0972 7.28216 15.0058C7.34637 14.9144 7.38821 14.8366 7.41109 14.7718L7.41145 14.7708L7.41146 14.7708C7.43639 14.7026 7.44804 14.6386 7.44804 14.5784C7.44804 14.4878 7.43101 14.413 7.40023 14.3515L7.3992 14.3494L7.39923 14.3494C7.36995 14.2874 7.3277 14.2402 7.27134 14.2057L7.27008 14.2049L7.27009 14.2049C7.21579 14.1706 7.1462 14.1508 7.05642 14.1508C6.94961 14.1508 6.86759 14.1738 6.80481 14.2138C6.73966 14.2552 6.6902 14.3125 6.65594 14.3883L6.65568 14.3889L6.65568 14.3889C6.62076 14.465 6.60194 14.5551 6.60194 14.6614V14.7614H6.50194H5.96094H5.86094V14.6614C5.86094 14.4556 5.90811 14.2652 6.00351 14.0925C6.09963 13.9169 6.23895 13.778 6.41887 13.6766C6.60159 13.572 6.81775 13.5221 7.06315 13.5221C7.29245 13.5221 7.49368 13.5605 7.66317 13.6419C7.83201 13.723 7.96356 13.84 8.05378 13.993C8.14528 14.1457 8.18904 14.3234 8.18904 14.5223C8.18904 14.635 8.17077 14.7465 8.13467 14.8565C8.09909 14.9649 8.04853 15.0721 7.98364 15.1781C7.9836 15.1782 7.98357 15.1783 7.98353 15.1783L7.89823 15.1261C7.83837 15.2249 7.76728 15.3244 7.68497 15.4247L8.31475 16.4045ZM8.31475 16.4045H8.21475H6.93206M8.31475 16.4045H6.93206M6.93206 16.4045L7.48627 15.7939L6.93206 16.4045Z" fill="white" stroke="white" stroke-width="0.2"/>
</g>
</svg>
