<svg width="25" height="24" viewBox="0 0 25 24" fill="none" xmlns="http://www.w3.org/2000/svg">
<g opacity="0.7" clip-path="url(#clip0_1946_9870)">
<path fill-rule="evenodd" clip-rule="evenodd" d="M9.50246 6.84281L9.1128 6.38832C8.76674 5.98451 8.14193 5.98451 7.79586 6.38832L5.19392 9.42385C4.9155 9.74868 4.9155 10.228 5.19392 10.5527L7.71898 13.4987L6.39333 18.4459C6.37408 18.5177 6.35729 18.5896 6.34281 18.6613H4.9851C4.02707 18.6613 3.25053 17.8848 3.25053 16.9268V2.18281C3.25053 1.22479 4.02707 0.448242 4.9851 0.448242H14.5253C15.4832 0.448242 16.2599 1.22479 16.2599 2.18281V2.23398L14.4582 1.75118C12.6074 1.25536 10.7052 2.35362 10.2094 4.20432L9.50246 6.84281ZM14.0095 3.42651L23.2245 5.89579C24.1498 6.14377 24.6989 7.09489 24.4509 8.02018L20.6349 22.2616C20.3869 23.1869 19.4358 23.7362 18.5105 23.4882L9.2955 21.0189C8.3702 20.7711 7.82093 19.82 8.06892 18.8945L11.8849 4.65308C12.1329 3.72779 13.084 3.17869 14.0095 3.42651ZM19.8199 11.756C19.2439 10.7585 18.0603 10.3306 17.0067 10.6703C16.2641 9.84953 15.025 9.62803 14.0274 10.204C12.8793 10.8668 12.4861 12.3349 13.1489 13.483L14.8354 16.4042C15.0748 16.819 15.6053 16.9612 16.0202 16.7216L18.9412 15.0351C20.0893 14.3723 20.4827 12.9041 19.8199 11.756ZM8.95819 8.87319L8.26295 11.4679L6.99459 9.98804L8.45416 8.28524L8.95819 8.87319ZM18.0738 13.5327L15.9036 14.7856L14.6509 12.6156C14.4669 12.2971 14.5762 11.8898 14.8946 11.706C15.213 11.5221 15.6203 11.6313 15.8043 11.9497L15.9575 12.2153C16.1971 12.6301 16.7274 12.7723 17.1422 12.5327L17.4078 12.3793C17.7263 12.1955 18.1335 12.3046 18.3175 12.6232C18.5013 12.9416 18.3922 13.3489 18.0738 13.5327Z" fill="white"/>
</g>
<defs>
<clipPath id="clip0_1946_9870">
<rect width="24" height="23.9999" fill="white" transform="translate(0.5)"/>
</clipPath>
</defs>
</svg>
