<svg xmlns="http://www.w3.org/2000/svg" xml:space="preserve" width="600" height="302" style="shape-rendering:geometricPrecision;text-rendering:geometricPrecision;image-rendering:optimizeQuality;fill-rule:evenodd;clip-rule:evenodd" viewBox="0 0 876 441"><defs><style>.fil0{fill:#fff;fill-rule:nonzero}</style></defs><g id="Layer_x0020_1"><g id="_358955195024"><path class="fil0" d="M50 0h776c14 0 27 6 36 15s14 21 14 35v341c0 14-5 26-14 36-9 9-22 14-36 14H50c-14 0-26-5-35-14v-1c-9-9-15-21-15-35V50c0-14 6-26 15-35S36 0 50 0zm776 10H50c-11 0-21 5-28 12S10 39 10 50v341c0 11 5 21 12 28s17 12 28 12h776c11 0 21-5 28-12 8-7 12-17 12-28V50c0-11-4-21-12-28-7-7-17-12-28-12z"/><path class="fil0" d="M149 195h14v-52c3 1 4 1 7 1 11 0 23-5 30-14 5-7 8-15 8-26s-4-21-10-27-16-9-28-9c-8 0-15 1-21 2v125zm14-114c2-1 5-1 9-1 16 0 21 11 21 24 0 18-10 28-24 28-2 0-4 0-6-1V81zm61 114h15v-55h5c13 0 18 7 21 24 2 16 5 28 7 31h14c-1-3-4-14-7-32-3-16-7-25-17-28v-1c13-5 21-16 21-32 0-10-3-19-9-25-7-6-16-9-29-9-7 0-15 1-21 2v125zm15-115h7c16 0 22 9 22 24s-9 25-23 25h-6V80zm94-13c-22 0-37 23-37 65 0 43 14 65 35 65 20 0 37-18 37-66 0-40-13-64-35-64zm-1 13c16 0 21 28 21 52s-5 52-21 52-21-26-21-52 5-52 21-52zm87 115 30-126h-16l-12 59c-3 15-6 32-8 49h-1c-2-16-6-35-9-49l-12-59h-16l29 126h15zm79-38 9 38h14L493 69h-16l-29 126h14l8-38h28zm-26-11 7-32c2-9 3-20 5-29h1c1 9 3 19 5 29l6 32h-24zm65 49c4 1 9 1 19 1 14 0 26-3 33-11 6-6 9-15 9-25 0-17-8-29-23-33 12-5 19-16 19-29 0-9-2-16-8-21-7-7-16-9-28-9-8 0-15 1-21 2v125zm14-115c2 0 5-1 8-1 16 0 21 9 21 21 0 13-10 22-22 22h-7V80zm0 54h7c13 0 26 8 26 26 0 16-10 25-25 25-4 0-6-1-8-1v-50zm64 61h51v-12h-36V69h-15v126zm83 0v-54l29-72h-15l-11 31c-3 10-6 19-9 29-3-10-6-20-10-29l-11-31h-15l28 73v53h14zM318 374h14v-57h32v-13h-32v-44h34v-13h-48v127zm99-38 9 38h14l-28-127h-16l-29 127h14l8-38h28zm-26-12 7-32c2-8 4-19 5-29h1c1 10 3 20 5 29l7 32h-25zm65-77v127h15V247h-15zm38 127h14v-55h6c12 0 18 6 20 24 3 15 5 27 7 31h15c-2-4-4-14-7-32-3-17-8-26-17-28v-1c12-6 20-16 20-32 0-10-3-19-9-25-6-7-16-9-29-9-7 0-14 0-20 2v125zm14-115c2 0 5-1 8-1 15 1 21 10 21 24 0 16-9 26-23 26h-6v-49z"/></g></g></svg>