<?xml version="1.0" encoding="iso-8859-1"?>
<!-- Uploaded to: SVG Repo, www.svgrepo.com, Generator: SVG Repo Mixer Tools -->
<svg version="1.1" id="Layer_1" xmlns="http://www.w3.org/2000/svg" xmlns:xlink="http://www.w3.org/1999/xlink" 
	 viewBox="0 0 512 512" xml:space="preserve">
<polygon style="fill:#FFBA00;" points="512,127.724 449.215,127.724 428.317,318.562 449.215,512 512,512 "/>
<polygon style="fill:#FDE09C;" points="386.431,127.724 365.534,319.862 386.431,512 449.215,512 449.215,127.724 "/>
<polygon style="fill:#FFBA00;" points="146.466,319.862 125.569,127.724 62.785,127.724 41.887,312.61 62.785,512 125.569,512 "/>
<rect y="127.728" style="fill:#FDE09C;" width="62.788" height="384.272"/>
<polygon style="fill:#FFBA00;" points="386.431,0 256,0 235.102,264.36 256,491.102 315.826,512 386.431,512 "/>
<polygon style="fill:#FDE09C;" points="125.569,0 125.569,512 196.174,512 256,491.102 256,0 "/>
<rect x="196.18" y="405.117" style="fill:#FFBA00;" width="59.831" height="106.883"/>
<g>
	<rect x="256" y="405.117" style="fill:#FF8E00;" width="59.831" height="106.883"/>
	<rect x="180.506" y="183.463" style="fill:#FF8E00;" width="31.347" height="38.088"/>
	<rect x="180.506" y="251.016" style="fill:#FF8E00;" width="31.347" height="38.088"/>
	<rect x="180.506" y="318.558" style="fill:#FF8E00;" width="31.347" height="38.088"/>
</g>
<g>
	<rect x="433.539" y="183.463" style="fill:#E96700;" width="31.347" height="38.088"/>
	<rect x="433.539" y="251.016" style="fill:#E96700;" width="31.347" height="38.088"/>
	<rect x="433.539" y="318.558" style="fill:#E96700;" width="31.347" height="38.088"/>
	<rect x="433.539" y="387.417" style="fill:#E96700;" width="31.347" height="38.088"/>
</g>
<g>
	<rect x="47.114" y="183.463" style="fill:#FF8E00;" width="31.347" height="38.088"/>
	<rect x="47.114" y="251.016" style="fill:#FF8E00;" width="31.347" height="38.088"/>
	<rect x="47.114" y="318.558" style="fill:#FF8E00;" width="31.347" height="38.088"/>
	<rect x="47.114" y="387.417" style="fill:#FF8E00;" width="31.347" height="38.088"/>
</g>
<g>
	<rect x="300.147" y="183.463" style="fill:#E96700;" width="31.347" height="38.088"/>
	<rect x="300.147" y="251.016" style="fill:#E96700;" width="31.347" height="38.088"/>
	<rect x="300.147" y="318.558" style="fill:#E96700;" width="31.347" height="38.088"/>
	<polygon style="fill:#E96700;" points="271.673,221.548 271.673,183.46 256,183.46 245.551,202.504 256,221.548 	"/>
	<polygon style="fill:#E96700;" points="271.673,289.099 271.673,251.012 256,251.012 245.551,270.055 256,289.099 	"/>
	<polygon style="fill:#E96700;" points="271.673,356.65 271.673,318.562 256,318.562 245.551,337.607 256,356.65 	"/>
</g>
<g>
	<rect x="240.327" y="183.463" style="fill:#FF8E00;" width="15.673" height="38.088"/>
	<rect x="240.327" y="251.016" style="fill:#FF8E00;" width="15.673" height="38.088"/>
	<rect x="240.327" y="318.558" style="fill:#FF8E00;" width="15.673" height="38.088"/>
</g>
<polygon style="fill:#B7003D;" points="302.456,149.643 302.456,50.112 271.109,50.112 271.109,84.204 256,84.204 245.551,99.878 
	256,115.551 271.109,115.551 271.109,149.643 "/>
<polygon style="fill:#F40C40;" points="240.891,84.204 240.891,50.112 209.544,50.112 209.544,149.643 240.891,149.643 
	240.891,115.551 256,115.551 256,84.204 "/>
</svg>