<svg width="22" height="22" viewBox="0 0 22 22" fill="none" xmlns="http://www.w3.org/2000/svg">
<g clip-path="url(#clip0_626_137)">
<path d="M2.36328 0.644531H19.6367C20.5859 0.644531 21.3555 1.41406 21.3555 2.36328V16.1133C21.3555 17.0625 20.5859 17.832 19.6367 17.832H2.36328C1.41406 17.832 0.644531 17.0625 0.644531 16.1133V2.36328C0.644531 1.41406 1.41406 0.644531 2.36328 0.644531Z" fill="#321F38"/>
<path d="M19.6367 0.644531H11V17.832H19.6367C20.5859 17.832 21.3555 17.0625 21.3555 16.1133V2.36328C21.3555 1.41406 20.5859 0.644531 19.6367 0.644531Z" fill="#321F38"/>
<path d="M5.53098 7.20676L3.26562 12.6758C3.26562 13.5798 3.42126 14.4475 3.70636 15.2539H11L12.2891 10.0977L11 4.94141C8.8642 4.94141 6.9306 5.8071 5.53098 7.20676Z" fill="#FFF5F5"/>
<path d="M5.53098 7.20654C4.13132 8.60616 3.26562 10.5398 3.26562 12.6756H11L5.53098 7.20654Z" fill="#FF1F3E"/>
<path d="M16.469 7.20676C15.0694 5.8071 13.1358 4.94141 11 4.94141V15.2539H18.2936C18.5787 14.4475 18.7344 13.5798 18.7344 12.6758L16.469 7.20676Z" fill="#C9001C"/>
<path d="M11 12.6756H18.7344C18.7344 10.5398 17.8687 8.60616 16.469 7.20654L11 12.6756Z" fill="#ECE9E8"/>
<path d="M18.2936 15.8986C18.2224 15.8986 18.1499 15.8867 18.0788 15.8616C17.7432 15.7429 17.5673 15.3747 17.6859 15.0391C17.9539 14.281 18.0898 13.4859 18.0898 12.6758C18.0898 8.76644 14.9093 5.58594 11 5.58594C7.09062 5.58594 3.91016 8.76644 3.91016 12.6758C3.91016 13.4859 4.04602 14.281 4.31402 15.0391C4.43266 15.3747 4.25674 15.7429 3.92111 15.8616C3.58544 15.9802 3.21724 15.8043 3.09861 15.4687C2.78175 14.5723 2.62109 13.6326 2.62109 12.6758C2.62109 8.05565 6.37987 4.29688 11 4.29688C15.6201 4.29688 19.3789 8.05565 19.3789 12.6758C19.3789 13.6326 19.2182 14.5723 18.9014 15.4688C18.8078 15.7333 18.5591 15.8986 18.2936 15.8986Z" fill="#FF6C6C"/>
<path d="M18.0898 12.6758C18.0898 13.4859 17.954 14.281 17.686 15.0391C17.5673 15.3747 17.7433 15.7429 18.0789 15.8616C18.1499 15.8867 18.2224 15.8986 18.2937 15.8986C18.5592 15.8986 18.8079 15.7333 18.9014 15.4688C19.2182 14.5723 19.3789 13.6326 19.3789 12.6758C19.3789 8.05565 15.6201 4.29688 11 4.29688V5.58594C14.9093 5.58594 18.0898 8.76644 18.0898 12.6758Z" fill="#FF1F3E"/>
<path d="M10.4095 6.18191L9.22789 3.48103C9.04157 3.05516 9.35353 2.57812 9.81836 2.57812H12.1816C12.6464 2.57812 12.9584 3.05516 12.7721 3.48098L11.5905 6.18187C11.3652 6.69681 10.6348 6.69681 10.4095 6.18191Z" fill="#FFE89C"/>
<path d="M12.1816 2.57812H11V6.56807C11.2389 6.56807 11.4779 6.43934 11.5905 6.18187L12.7721 3.48098C12.9584 3.05516 12.6465 2.57812 12.1816 2.57812Z" fill="#FFCD00"/>
<path d="M11 15.4688C12.5425 15.4688 13.793 14.2183 13.793 12.6758C13.793 11.1333 12.5425 9.88281 11 9.88281C9.45749 9.88281 8.20703 11.1333 8.20703 12.6758C8.20703 14.2183 9.45749 15.4688 11 15.4688Z" fill="#FF6C6C"/>
<path d="M13.793 12.6758C13.793 11.1357 12.54 9.88281 11 9.88281V15.4688C12.54 15.4688 13.793 14.2158 13.793 12.6758Z" fill="#FF1F3E"/>
<path d="M11 13.3203C11.356 13.3203 11.6445 13.0317 11.6445 12.6758C11.6445 12.3198 11.356 12.0312 11 12.0312C10.644 12.0312 10.3555 12.3198 10.3555 12.6758C10.3555 13.0317 10.644 13.3203 11 13.3203Z" fill="#FFF5F5"/>
<path d="M11.6445 12.6758C11.6445 12.3198 11.356 12.0312 11 12.0312V13.3203C11.356 13.3203 11.6445 13.0317 11.6445 12.6758Z" fill="#ECE9E8"/>
<path d="M7.77734 17.832H14.2227V21.3555H7.77734V17.832Z" fill="#975DD8"/>
<path d="M15.7266 22H6.27344C5.91748 22 5.62891 21.7114 5.62891 21.3555C5.62891 20.9995 5.91748 20.7109 6.27344 20.7109H15.7266C16.0825 20.7109 16.3711 20.9995 16.3711 21.3555C16.3711 21.7114 16.0825 22 15.7266 22Z" fill="#6F0FDB"/>
<path d="M19.6367 0H2.36328C1.06017 0 0 1.06017 0 2.36328V16.1133C0 17.4164 1.06017 18.4766 2.36328 18.4766H19.6367C20.9398 18.4766 22 17.4164 22 16.1133V2.36328C22 1.06017 20.9398 0 19.6367 0ZM2.36328 1.28906H19.6367C20.229 1.28906 20.7109 1.77096 20.7109 2.36328V14.6094H1.28906V2.36328C1.28906 1.77096 1.77096 1.28906 2.36328 1.28906Z" fill="url(#paint0_linear_626_137)"/>
</g>
<defs>
<linearGradient id="paint0_linear_626_137" x1="11" y1="0" x2="11" y2="18.4766" gradientUnits="userSpaceOnUse">
<stop stop-color="#9D69D7"/>
<stop offset="1" stop-color="#8019F1"/>
</linearGradient>
<clipPath id="clip0_626_137">
<rect width="22" height="22" fill="white"/>
</clipPath>
</defs>
</svg>
