<svg width="19" height="19" viewBox="0 0 19 19" fill="none" xmlns="http://www.w3.org/2000/svg">
<path d="M16.9915 2.75061C15.9759 2.33255 14.148 4.09901 13.7917 4.45749C13.676 4.57375 13.6766 4.76176 13.7928 4.87729C13.9094 4.99326 14.0969 4.99268 14.2126 4.87613C14.9606 4.12409 16.291 3.10503 16.7651 3.29942C16.9628 3.38117 16.9924 3.77836 16.9924 4.00783C16.9924 5.67384 16.6163 7.82546 15.557 8.40616C15.063 8.6768 14.433 8.57083 13.6832 8.09247C13.5447 8.00419 13.3614 8.04507 13.2733 8.18292C13.1852 8.32121 13.2255 8.50473 13.3638 8.59287C13.9442 8.96338 14.4823 9.14893 14.9725 9.14878C15.2818 9.14878 15.5723 9.07485 15.8423 8.92685C17.128 8.22221 17.5861 5.92375 17.5861 4.00783C17.5861 3.33638 17.3861 2.9134 16.9915 2.75061Z" fill="#F9A01B"/>
<path d="M5.31666 8.09254C4.56679 8.57105 3.9365 8.67701 3.44307 8.40623C2.38356 7.82553 2.00769 5.67391 2.00769 4.0079C2.00769 3.77843 2.03726 3.38124 2.23498 3.29963C2.70929 3.10205 4.03899 4.12415 4.78727 4.8762C4.90265 4.99246 5.09081 4.99275 5.20707 4.87736C5.32332 4.76168 5.3239 4.57382 5.20823 4.45756C4.85192 4.09922 3.0224 2.33233 2.00871 2.75068C1.61398 2.91346 1.41394 3.33645 1.41394 4.0079C1.41394 5.92381 1.87201 8.22228 3.15765 8.92692C3.42771 9.07493 3.7182 9.14885 4.02754 9.14885C4.51779 9.14885 5.05574 8.96331 5.63615 8.59294C5.77429 8.5048 5.81488 8.32129 5.7266 8.183C5.63861 8.045 5.45552 8.00426 5.31666 8.09254Z" fill="#F9A01B"/>
<path d="M9.49999 12.36C6.67899 12.36 4.33304 10.1892 4.11464 7.37663L3.66066 1.53034C3.63387 1.18534 3.90659 0.890625 4.25263 0.890625H14.7473C15.0934 0.890625 15.3661 1.18534 15.3393 1.53034L14.8853 7.37663C14.6669 10.1892 12.321 12.36 9.49999 12.36Z" fill="#FCB316"/>
<path d="M5.00526 8.26726L4.55129 2.42097C4.5245 2.07597 4.79723 1.78125 5.14326 1.78125H15.3198L15.3393 1.53035C15.3661 1.18534 15.0934 0.890625 14.7473 0.890625H4.25264C3.9066 0.890625 3.63388 1.18534 3.66066 1.53035L4.11463 7.37663C4.23576 8.93655 5.01296 10.2972 6.16107 11.2014C5.51314 10.3851 5.09149 9.3778 5.00526 8.26726Z" fill="#F9A01B"/>
<path d="M9.82067 4.30037L10.2203 5.53019C10.2654 5.66911 10.3949 5.76317 10.5409 5.76317H11.834C12.1607 5.76317 12.2965 6.18114 12.0322 6.37313L10.9861 7.1332C10.8679 7.21906 10.8185 7.37125 10.8636 7.51018L11.2632 8.74C11.3641 9.05064 11.0086 9.30896 10.7443 9.11697L9.69819 8.3569C9.58001 8.27104 9.41999 8.27104 9.30181 8.3569L8.25566 9.11697C7.99141 9.30896 7.63587 9.05064 7.7368 8.74L8.13639 7.51018C8.18153 7.37125 8.13208 7.21906 8.01391 7.1332L6.96776 6.37313C6.70351 6.18114 6.83932 5.76317 7.16595 5.76317H8.45906C8.60513 5.76317 8.73459 5.66911 8.77973 5.53019L9.17932 4.30037C9.28026 3.98972 9.71974 3.98972 9.82067 4.30037Z" fill="#FFE081"/>
<path d="M6.26376 14.6528H12.7362C13.0639 14.6528 13.33 14.9189 13.33 15.2466V16.2048H5.67001V15.2466C5.67001 14.9189 5.93606 14.6528 6.26376 14.6528Z" fill="#FCB316"/>
<path d="M12.7362 14.6528H6.26376C5.93585 14.6528 5.67001 14.9187 5.67001 15.2466V16.1372C5.67001 15.8093 5.93585 15.5435 6.26376 15.5435H12.7362C13.0641 15.5435 13.33 15.8093 13.33 16.1372V15.2466C13.33 14.9187 13.0641 14.6528 12.7362 14.6528Z" fill="#F9A01B"/>
<path d="M4.65887 16.2046H14.3411C14.6688 16.2046 14.9349 16.4706 14.9349 16.7983V18.1093H4.06512V16.7983C4.06512 16.4706 4.33117 16.2046 4.65887 16.2046Z" fill="#F9A01B"/>
<path d="M10.6776 12.2261C10.2975 12.3108 9.90452 12.3602 9.50001 12.3602C9.09551 12.3602 8.70254 12.3108 8.32244 12.2261C8.07765 13.202 7.63536 14.2912 6.84872 14.6529H12.1513C11.3647 14.2912 10.9224 13.202 10.6776 12.2261Z" fill="#FCB316"/>
<path d="M12.054 14.6528H12.1513C12.0953 14.6271 12.0416 14.5968 11.989 14.564C12.01 14.5945 12.0321 14.6235 12.054 14.6528Z" fill="#F9A01B"/>
<path d="M8.5459 13.928C8.81397 13.3212 9.41827 12.9523 10.0816 12.9539C10.0857 12.9539 10.0897 12.9539 10.0938 12.9539C10.3595 12.9539 10.6197 12.9308 10.8751 12.8922C10.7984 12.6708 10.7327 12.4457 10.6776 12.2261C10.2975 12.3108 9.90452 12.3602 9.50001 12.3602C9.09551 12.3602 8.70254 12.3108 8.32244 12.2261C8.07765 13.202 7.63536 14.2912 6.84872 14.6529H8.13356C8.29295 14.4395 8.42936 14.1917 8.5459 13.928Z" fill="#F9A01B"/>
</svg>
