<svg width="22" height="22" viewBox="0 0 22 22" fill="none" xmlns="http://www.w3.org/2000/svg">
<g clip-path="url(#clip0_336_331)">
<path d="M21.4809 8.08921L14.355 7.42831L11.5244 0.855432C11.3263 0.395195 10.6737 0.395195 10.4755 0.855432L7.64496 7.42835L0.519074 8.08921C0.0201214 8.13548 -0.18153 8.75608 0.194918 9.08677L5.57142 13.81L3.99799 20.7913C3.88782 21.2802 4.41573 21.6637 4.84658 21.4079L11 17.7541L17.1534 21.4079C17.5843 21.6637 18.1122 21.2802 18.002 20.7913L16.4286 13.81L21.8051 9.08677C22.1815 8.75608 21.9799 8.13548 21.4809 8.08921Z" fill="#FFBC00"/>
<path d="M11.5244 0.855432C11.3263 0.395195 10.6737 0.395195 10.4755 0.855432L7.64496 7.42835L0.519074 8.08921C0.0201214 8.13548 -0.18153 8.75608 0.194918 9.08677L5.57142 13.81L3.99799 20.7913C3.88782 21.2802 4.41573 21.6637 4.84658 21.4079L6.21999 20.5924C6.41008 12.7677 10.0457 7.25755 12.924 4.10541L11.5244 0.855432Z" fill="#FFCC3E"/>
</g>
<defs>
<clipPath id="clip0_336_331">
<rect width="22" height="22" fill="white"/>
</clipPath>
</defs>
</svg>
