<svg width="19" height="19" viewBox="0 0 19 19" fill="none" xmlns="http://www.w3.org/2000/svg">
<g clip-path="url(#clip0_344_93)">
<path d="M14.6349 11.708C14.6601 12.793 15.6189 13.6761 16.7039 13.6509C17.1833 13.6256 17.6375 13.449 17.9655 13.1462C18.1169 12.9948 18.344 12.9191 18.5711 12.9191H18.9748V18.3187C18.9748 18.6719 18.6972 18.9495 18.3439 18.9495H12.9192V18.5458C12.9192 18.3187 13.0201 18.0916 13.1715 17.915C13.4743 17.5618 13.6761 17.1076 13.6761 16.603C13.6761 16.5273 13.6761 16.4768 13.6761 16.4011C13.6761 16.3759 13.6761 16.3759 13.6761 16.3507C13.6761 16.3002 13.6761 16.2497 13.6509 16.1993C13.6509 16.1741 13.6509 16.1488 13.6257 16.1236C13.6257 16.0731 13.6005 16.0479 13.6005 15.9974C13.6005 15.9722 13.5753 15.947 13.5753 15.9217C13.5501 15.8713 13.5501 15.8461 13.5248 15.7956C13.5248 15.7704 13.4996 15.7451 13.4996 15.7199C13.4744 15.6947 13.4744 15.6442 13.4491 15.6189C13.4491 15.5937 13.4239 15.5685 13.4239 15.5433C13.3987 15.518 13.3734 15.4676 13.3482 15.4423C13.323 15.4171 13.323 15.3918 13.2977 15.3918C13.2725 15.3666 13.2473 15.3162 13.222 15.2909C13.1968 15.2657 13.1968 15.2657 13.1716 15.2404C13.1464 15.2152 13.1211 15.19 13.0959 15.1647C13.0707 15.1395 13.0454 15.1395 13.0454 15.1143C13.0202 15.0891 12.9949 15.0638 12.9445 15.0386C12.9193 15.0134 12.894 15.0134 12.894 14.9881C12.8688 14.9629 12.8183 14.9376 12.793 14.9124C12.7678 14.8872 12.7426 14.8872 12.7174 14.8619C12.6921 14.8367 12.6417 14.8115 12.6164 14.8115C12.5912 14.8115 12.5659 14.7863 12.5407 14.7863C12.5155 14.761 12.465 14.761 12.4398 14.7358C12.4146 14.7358 12.3893 14.7106 12.3641 14.7106C12.3389 14.7106 12.2884 14.6854 12.2632 14.6601C12.2379 14.6601 12.2127 14.6601 12.1875 14.6349C12.1622 14.6349 12.1118 14.6097 12.0865 14.6097C12.0613 14.6097 12.036 14.6097 12.0108 14.6097C11.9856 14.6097 11.9351 14.6097 11.8847 14.6097C11.8595 14.6097 11.8342 14.6097 11.7837 14.6097C11.7585 14.6097 11.708 14.6097 11.6828 14.6097H11.6576H11.5566C11.5314 14.6097 11.4809 14.6097 11.4557 14.6097C11.4052 14.6097 11.38 14.6349 11.3295 14.6349C11.3043 14.6349 11.279 14.6349 11.2538 14.6349C11.2034 14.6349 11.1529 14.6601 11.1025 14.6854H11.0772C11.0268 14.7106 10.9511 14.7358 10.9006 14.761C10.4969 14.9377 10.1436 15.2657 9.94179 15.6694C9.94179 15.6694 9.94179 15.6694 9.94179 15.6946C9.91658 15.7451 9.89132 15.7955 9.8661 15.846C9.8661 15.846 9.8661 15.8712 9.84089 15.8964C9.81567 15.9469 9.81567 15.9721 9.79042 16.0226C9.79042 16.0478 9.7652 16.0731 9.7652 16.0983C9.7652 16.1235 9.73998 16.174 9.73998 16.1992C9.73998 16.2245 9.71477 16.2497 9.71477 16.2749C9.71477 16.3001 9.71477 16.3506 9.71477 16.3759C9.71477 16.4011 9.71477 16.4516 9.71477 16.4768C9.71477 16.502 9.71477 16.5525 9.71477 16.5778C9.71477 16.603 9.71477 16.6534 9.71477 16.6787V16.7039C9.71477 16.7291 9.71477 16.7544 9.71477 16.7796V16.8806C9.71477 16.9058 9.71477 16.931 9.71477 16.9562C9.71477 16.9815 9.71477 17.0319 9.73998 17.0572C9.73998 17.0824 9.73998 17.1077 9.7652 17.1329C9.7652 17.1581 9.79042 17.2086 9.79042 17.2338C9.79042 17.259 9.81563 17.2843 9.81563 17.3095C9.81563 17.3347 9.84085 17.36 9.84085 17.3852C9.84085 17.4104 9.86606 17.4357 9.86606 17.4609C9.86606 17.4861 9.89128 17.5114 9.89128 17.5366C9.89128 17.5618 9.9165 17.587 9.94175 17.6123C9.96697 17.6375 9.96697 17.6627 9.99222 17.6879C10.0174 17.7132 10.0174 17.7384 10.0427 17.7636C10.0679 17.7889 10.0679 17.8141 10.0932 17.8393C10.1184 17.8645 10.1184 17.8898 10.1436 17.915C10.1689 17.9402 10.1689 17.9402 10.1941 17.9655C10.3455 18.1421 10.4464 18.3692 10.4464 18.5963V19H4.9964C4.64317 19 4.3656 18.7224 4.3656 18.3692V12.8939H3.9619C3.7348 12.8939 3.53295 12.9696 3.35635 13.121C3.02835 13.4238 2.57418 13.6256 2.09475 13.6256C1.00978 13.6761 0.0509666 12.793 0.0257507 11.6828C0.000534751 10.5474 0.908874 9.63902 2.01906 9.63902C2.5237 9.63902 2.97787 9.81565 3.3311 10.1437C3.50773 10.295 3.70958 10.396 3.9619 10.396H4.3656V4.97116C4.3656 4.61794 4.64313 4.34036 4.9964 4.34036H10.4212V3.93666C10.4212 3.70956 10.3455 3.50771 10.1941 3.33112C9.89132 3.00311 9.68947 2.54894 9.68947 2.06951C9.639 0.98454 10.5221 0.0257286 11.6071 0.000512641C12.7425 -0.0247033 13.6509 0.883636 13.6509 1.99382C13.6509 2.49847 13.4742 2.95263 13.1462 3.30586C12.9949 3.48249 12.8939 3.68434 12.8939 3.93666V4.34036H18.3439C18.6972 4.34036 18.9748 4.6179 18.9748 4.97116V10.396H18.5711C18.3439 10.396 18.1169 10.295 17.9403 10.1437C17.587 9.84086 17.1329 9.63902 16.6282 9.63902C15.518 9.66423 14.6097 10.5726 14.6349 11.708Z" fill="url(#paint0_linear_344_93)"/>
</g>
<defs>
<linearGradient id="paint0_linear_344_93" x1="9.49999" y1="0" x2="9.49999" y2="19" gradientUnits="userSpaceOnUse">
<stop stop-color="#E58853"/>
<stop offset="1" stop-color="#EF4800"/>
</linearGradient>
<clipPath id="clip0_344_93">
<rect width="19" height="19" fill="white"/>
</clipPath>
</defs>
</svg>
