<?xml version="1.0" encoding="UTF-8" ?>
<!DOCTYPE svg PUBLIC "-//W3C//DTD SVG 1.1//EN" "http://www.w3.org/Graphics/SVG/1.1/DTD/svg11.dtd">
<svg width="481pt" height="450pt" viewBox="0 0 481 450" version="1.1" xmlns="http://www.w3.org/2000/svg">
<g id="#ffffffff">
<path fill="#ffffff" opacity="1.00" d=" M 33.16 7.38 C 42.00 2.78 52.03 0.79 61.95 0.94 C 161.97 0.96 261.99 0.90 362.00 0.97 C 383.48 0.86 404.34 13.58 414.12 32.70 C 418.73 41.29 420.88 51.04 420.93 60.76 C 436.04 60.68 451.13 66.42 462.07 76.88 C 473.92 87.87 480.81 103.91 480.73 120.07 C 480.78 177.71 480.74 235.35 480.75 292.99 C 480.68 301.38 481.22 309.91 479.15 318.14 C 475.79 332.74 466.58 345.85 454.05 354.05 C 445.07 360.00 434.44 363.30 423.69 363.75 C 423.68 392.28 423.70 420.80 423.69 449.33 C 382.71 420.83 341.74 392.31 300.78 363.79 C 240.83 363.77 180.89 363.80 120.94 363.78 C 113.72 363.67 106.61 362.49 99.74 360.28 C 85.76 370.02 71.77 379.76 57.79 389.49 C 57.77 360.97 57.78 332.44 57.78 303.92 C 35.14 303.29 13.77 288.43 5.29 267.44 C 1.92 259.40 0.55 250.65 0.75 241.97 C 0.76 181.64 0.73 121.30 0.76 60.97 C 0.24 38.84 13.34 17.21 33.16 7.38 M 40.20 36.26 C 32.87 42.19 28.73 51.59 28.89 60.98 C 28.87 121.99 28.87 182.99 28.90 244.00 C 28.80 252.68 32.28 261.37 38.68 267.29 C 44.16 272.56 51.65 275.54 59.23 275.73 C 68.12 275.92 77.02 275.75 85.91 275.81 C 85.91 295.76 85.90 315.70 85.91 335.65 C 114.59 315.71 143.24 295.74 171.92 275.81 C 234.98 275.80 298.04 275.84 361.09 275.79 C 370.40 275.86 379.71 271.79 385.58 264.50 C 390.65 258.59 392.90 250.73 392.78 243.03 C 392.77 182.32 392.81 121.60 392.76 60.88 C 392.77 53.53 390.43 46.13 385.65 40.48 C 379.76 33.14 370.40 28.96 361.02 29.08 C 261.00 29.04 160.97 29.06 60.95 29.08 C 53.48 29.00 45.94 31.39 40.20 36.26 M 420.91 88.86 C 420.90 140.59 420.93 192.32 420.90 244.05 C 420.93 253.50 418.86 262.98 414.52 271.40 C 406.99 286.56 392.58 298.06 376.16 302.13 C 367.29 304.48 358.05 303.86 348.97 303.94 C 292.94 303.99 236.89 303.83 180.86 304.02 C 165.44 314.33 150.40 325.24 135.04 335.67 C 193.25 335.64 251.45 335.64 309.65 335.67 C 338.27 355.64 366.92 375.56 395.56 395.49 C 395.56 375.55 395.56 355.60 395.56 335.66 C 405.33 335.48 415.12 336.01 424.86 335.36 C 440.16 334.14 452.79 319.99 452.58 304.69 C 452.67 243.43 452.61 182.16 452.61 120.90 C 452.66 113.30 450.18 105.63 445.13 99.88 C 439.23 92.78 430.07 88.90 420.91 88.86 Z" />
<path fill="#ffffff" opacity="1.00" d=" M 140.56 133.12 C 149.91 133.12 159.25 133.12 168.60 133.13 C 168.59 142.46 168.61 151.80 168.59 161.14 C 159.24 161.10 149.90 161.14 140.56 161.12 C 140.56 151.79 140.56 142.46 140.56 133.12 Z" />
<path fill="#ffffff" opacity="1.00" d=" M 196.81 133.12 C 206.16 133.12 215.50 133.12 224.85 133.12 C 224.85 142.46 224.85 151.79 224.85 161.12 C 215.50 161.13 206.16 161.13 196.81 161.12 C 196.81 151.79 196.81 142.46 196.81 133.12 Z" />
<path fill="#ffffff" opacity="1.00" d=" M 253.06 133.75 C 262.40 133.75 271.75 133.75 281.09 133.75 C 281.09 143.08 281.10 152.42 281.09 161.75 C 271.75 161.75 262.40 161.76 253.06 161.75 C 253.06 152.42 253.06 143.08 253.06 133.75 Z" />
</g>
</svg>
