<svg xmlns="http://www.w3.org/2000/svg" width="120px" height="40px" viewBox="0 0 175 60" version="1.1">
    <g id="#fdd000ff"><path fill="#fdd000" opacity="1.00" d=" M 18.86 0.00 L 19.18 0.00 C 27.32 4.94 34.66 12.48 36.56 22.11 C 37.25 24.94 36.16 28.09 37.75 30.69 C 38.67 29.12 39.61 27.56 40.55 26.01 C 46.12 33.80 47.48 45.02 41.98 53.21 C 43.76 44.98 43.12 34.91 35.52 29.74 C 36.51 20.32 28.72 12.50 20.88 8.58 C 20.49 5.66 19.93 2.75 18.86 0.00 Z"></path> <path fill="#fdd000" opacity="1.00" d=" M 15.09 30.50 C 19.28 35.37 25.69 37.13 30.30 41.43 C 32.09 41.04 33.90 40.58 35.74 40.87 C 36.05 41.21 36.69 41.89 37.00 42.23 C 33.59 40.97 30.99 43.77 29.27 46.31 C 29.02 44.11 28.06 41.99 26.06 40.88 C 21.82 38.17 16.42 35.90 15.09 30.50 Z"></path></g> 
    <g id="#f08300ff"><path fill="#f08300" opacity="1.00" d=" M 20.88 8.58 C 28.72 12.50 36.51 20.32 35.52 29.74 C 43.12 34.91 43.76 44.98 41.98 53.21 C 39.85 56.69 35.65 57.68 32.56 60.00 L 31.23 60.00 C 32.72 57.66 35.03 55.76 35.55 52.90 C 36.56 50.02 36.46 45.43 40.57 45.31 C 39.34 44.33 38.14 43.32 37.00 42.23 C 36.69 41.89 36.05 41.21 35.74 40.87 C 33.90 40.58 32.09 41.04 30.30 41.43 C 25.69 37.13 19.28 35.37 15.09 30.50 C 15.00 29.07 14.92 27.64 14.85 26.21 C 11.28 31.74 8.88 38.63 10.89 45.18 C 11.79 48.72 14.33 51.45 16.95 53.84 C 12.78 53.13 8.94 50.92 7.08 46.98 C 7.48 52.16 9.67 58.10 14.96 60.00 L 13.67 60.00 C 10.17 58.57 6.57 56.81 4.29 53.66 C -0.07 48.00 -0.30 39.94 2.57 33.57 C 5.41 27.07 11.22 22.60 14.79 16.56 C 15.26 18.58 15.74 20.60 16.27 22.60 C 19.67 18.78 21.13 13.63 20.88 8.58 Z"></path></g> 
</svg>