<?xml version="1.0" encoding="iso-8859-1"?>
<!-- Uploaded to: SVG Repo, www.svgrepo.com, Generator: SVG Repo Mixer Tools -->
<svg height="800px" width="800px" version="1.1" id="Layer_1" xmlns="http://www.w3.org/2000/svg" xmlns:xlink="http://www.w3.org/1999/xlink" 
	 viewBox="0 0 512 512" xml:space="preserve">
<polygon style="fill:#C1C4CE;" points="473.043,278.261 256,512 38.957,278.261 "/>
<polygon style="fill:#B7B9C4;" points="255.073,511.002 256,512 473.043,278.261 255.073,278.261 "/>
<g>
	<path style="fill:#FFE477;" d="M256,100.174c-9.217,0-16.696-7.473-16.696-16.696V16.696C239.304,7.473,246.783,0,256,0
		s16.696,7.473,16.696,16.696v66.783C272.696,92.701,265.217,100.174,256,100.174z"/>
	<path style="fill:#FFE477;" d="M155.826,100.174c-4.272,0-8.544-1.631-11.804-4.892l-33.391-33.391
		c-6.521-6.516-6.521-17.092,0-23.609c6.521-6.521,17.087-6.521,23.609,0l33.391,33.391c6.521,6.516,6.521,17.092,0,23.609
		C164.37,98.543,160.098,100.174,155.826,100.174z"/>
</g>
<path style="fill:#FFB655;" d="M356.174,100.174c-4.272,0-8.544-1.631-11.804-4.892c-6.521-6.516-6.521-17.092,0-23.609
	l33.391-33.391c6.521-6.521,17.087-6.521,23.609,0c6.521,6.516,6.521,17.092,0,23.609l-33.391,33.391
	C364.718,98.543,360.446,100.174,356.174,100.174z"/>
<polygon style="fill:#EDF0FD;" points="161.391,278.261 256,512 350.609,278.261 "/>
<polygon style="fill:#DFE2EF;" points="256,512 350.609,278.261 256,278.261 "/>
<polygon style="fill:#C1C4CE;" points="111.304,133.565 400.696,133.565 350.609,278.261 161.391,278.261 "/>
<polygon style="fill:#B7B9C4;" points="256,278.261 350.609,278.261 400.696,133.565 256,133.565 "/>
<polygon style="fill:#DFE2EF;" points="256,133.565 161.391,278.261 350.609,278.261 "/>
<g>
	<polygon style="fill:#D5D7E5;" points="350.609,278.261 256,133.565 256,278.261 	"/>
	<polygon style="fill:#D5D7E5;" points="400.696,133.565 473.043,278.261 350.609,278.261 	"/>
</g>
<polygon style="fill:#DFE2EF;" points="111.304,133.565 38.957,278.261 161.391,278.261 "/>
<path style="fill:#FFB655;" d="M272.696,83.478V16.696C272.696,7.473,265.217,0,256,0v100.174
	C265.217,100.174,272.696,92.701,272.696,83.478z"/>
</svg>