<svg id="Layer_2" data-name="Layer 2" xmlns="http://www.w3.org/2000/svg" viewBox="0 0 50 45"><title>customer-icon</title><path fill="#c1ad8b" d="M28.49,3.43A15.73,15.73,0,0,0,18,7.45a6.59,6.59,0,0,1,1,3.32h0c0,0.53,0,1.07.09,1.6a11.65,11.65,0,1,1,9.63,18.49c0.58,0.48,1.18.94,1.79,1.38h0a6.59,6.59,0,0,1,2,2.25A15.8,15.8,0,0,0,28.49,3.43Z"/><path fill="#c1ad8b" d="M28.1,35.64c-1.8-1.44-2.93-2.4-4.54-3.89A2.47,2.47,0,0,0,21.91,31a2,2,0,0,0-1.28.45l-1.15,1a34.79,34.79,0,0,1-6.77-12.62l1.44-.42a2.25,2.25,0,0,0,1.4-2.58c-0.34-2.46-.52-3.68-0.73-5.94a2.28,2.28,0,0,0-2-2.22l-0.51,0C8.24,8.64,4.67,13.4,6,19.21A41.16,41.16,0,0,0,16.28,38.4a9.69,9.69,0,0,0,6.94,3.18,6.19,6.19,0,0,0,5.64-3.06A2.27,2.27,0,0,0,28.1,35.64Z"/><path fill="#c1ad8b" d="M23.74,19.51a12.71,12.71,0,0,0-2.18,2.43A5,5,0,0,0,21,23.33a0.75,0.75,0,0,0,.73.93h5.21a1.16,1.16,0,0,0,0-2.32H24.57l0.06-.07c0.15-.17.53-0.53,1.12-1.07A12.28,12.28,0,0,0,27,19.51a5.47,5.47,0,0,0,.8-1.34,3.71,3.71,0,0,0,.26-1.38,2.87,2.87,0,0,0-.92-2.17,3.5,3.5,0,0,0-2.49-.87,3.85,3.85,0,0,0-2.4.74,2.77,2.77,0,0,0-.89,1.22,1.2,1.2,0,0,0,1,1.63H22.5a1.23,1.23,0,0,0,1.16-.83,1,1,0,0,1,.21-0.37,1,1,0,0,1,.75-0.28,1,1,0,0,1,.75.26,1.05,1.05,0,0,1,.26.78,1.83,1.83,0,0,1-.35,1A12.56,12.56,0,0,1,23.74,19.51Z"/><path fill="#c1ad8b" d="M34.17,13.76H33.3a0.75,0.75,0,0,0-.62.33l-4,5.89a1,1,0,0,0-.18.58v1a0.75,0.75,0,0,0,.75.75h3.3v0.8a1.2,1.2,0,1,0,2.39,0v-0.8H35A1.11,1.11,0,0,0,35,20H34.92V14.51A0.75,0.75,0,0,0,34.17,13.76ZM32.53,20H31.05l1.48-2.21V20Z"/></svg>
