<svg id="Layer_2" data-name="Layer 2" xmlns="http://www.w3.org/2000/svg" viewBox="0 0 50 45"><title>dm-icon</title><path fill="#c1ad8b" d="M7.83,16.1l4.86,3.38L18.9,23.8l1,0.72q0.77,0.56,1.28.9t1.23,0.77a7.16,7.16,0,0,0,1.36.64,3.76,3.76,0,0,0,1.19.21h0a3.76,3.76,0,0,0,1.19-.21,7.16,7.16,0,0,0,1.36-.64q0.72-.43,1.23-0.77t1.28-.9l1-.72L42.2,16.1a11.27,11.27,0,0,0,2.89-2.92A6.26,6.26,0,0,0,46.25,9.6,3.83,3.83,0,0,0,42.46,5.8H7.54A3.39,3.39,0,0,0,4.73,7a4.79,4.79,0,0,0-1,3.08,5.54,5.54,0,0,0,1.3,3.24A11.77,11.77,0,0,0,7.83,16.1Z"/><path fill="#c1ad8b" d="M43.88,18.63Q36.1,23.9,32.07,26.82q-1.35,1-2.19,1.55a13.54,13.54,0,0,1-2.24,1.14,6.82,6.82,0,0,1-2.61.58h0a6.83,6.83,0,0,1-2.61-.58,13.55,13.55,0,0,1-2.24-1.14q-0.84-.56-2.19-1.55-3.2-2.35-11.79-8.18a12.56,12.56,0,0,1-2.4-2.06V35.4a3.65,3.65,0,0,0,1.11,2.68A3.65,3.65,0,0,0,7.54,39.2H42.46a3.81,3.81,0,0,0,3.79-3.8V16.57A13.08,13.08,0,0,1,43.88,18.63Z"/></svg>
