<svg id="Layer_2" data-name="Layer 2" xmlns="http://www.w3.org/2000/svg" viewBox="0 0 50 45"><title>promo-icon</title><path fill="#c1ad8b" d="M46,16.56a0.86,0.86,0,0,0-.64-0.25H33.18a6,6,0,0,0,4.38-1.81,6,6,0,0,0,1.81-4.38,6,6,0,0,0-1.81-4.38,6,6,0,0,0-4.38-1.81,5.6,5.6,0,0,0-4.64,2.13L25,10.62,21.46,6.06a5.6,5.6,0,0,0-4.64-2.13,6,6,0,0,0-4.38,1.81,6,6,0,0,0-1.81,4.38,6,6,0,0,0,1.81,4.38,6,6,0,0,0,4.38,1.81H4.66a0.85,0.85,0,0,0-.88.88V26a0.85,0.85,0,0,0,.88.88H7.31v11.5A2.64,2.64,0,0,0,10,41.07H40a2.64,2.64,0,0,0,2.65-2.65V26.92h2.65A0.85,0.85,0,0,0,46.22,26V17.19A0.86,0.86,0,0,0,46,16.56ZM31.27,8.32a2.36,2.36,0,0,1,1.91-.86,2.64,2.64,0,0,1,2.65,2.65,2.64,2.64,0,0,1-2.65,2.65H27.82ZM16.82,12.77a2.64,2.64,0,0,1-2.65-2.65,2.64,2.64,0,0,1,2.65-2.65,2.36,2.36,0,0,1,1.91.86l3.48,4.45H16.82Zm12.6,8.84V36.1a1.25,1.25,0,0,1-.5,1.06,2.06,2.06,0,0,1-1.27.37H22.35a2.06,2.06,0,0,1-1.27-.37,1.25,1.25,0,0,1-.5-1.06V16.31h8.84v5.31Z"/></svg>
