<svg xmlns="http://www.w3.org/2000/svg" width="17.501" height="15" viewBox="0 0 17.501 15">
  <path id="refresh-icon" d="M16.493,14.676,20.251,10.3H17.719A7.437,7.437,0,0,0,16.8,7.274a7.527,7.527,0,0,0-5.2-3.742h-.141a7.378,7.378,0,0,0-1.221-.1h0a7.52,7.52,0,0,0-7.32,5.793h0a.222.222,0,0,1-.027.13v.137c0,.027-.039.055-.039.1v.043l-.024.141h0a6.809,6.809,0,0,0-.075.746v.789a5.108,5.108,0,0,0,.075.746h0l.024.149v.283a.2.2,0,0,0,.027.126h0a7.535,7.535,0,0,0,7.359,5.815,7.362,7.362,0,0,0,4.574-1.594l.3-.224-1.688-1.806-.243.181a4.842,4.842,0,0,1-2.933.946,5.008,5.008,0,0,1,0-10.017A4.967,4.967,0,0,1,15.3,10.3H12.425Z" transform="translate(-2.75 -3.43)" fill="#c1ad8b"/>
</svg>
